<?xml version="1.0" standalone="no"?><!DOCTYPE svg PUBLIC "-//W3C//DTD SVG 1.1//EN" "http://www.w3.org/Graphics/SVG/1.1/DTD/svg11.dtd"><svg t="1764234767818" class="icon" viewBox="0 0 1288 1024" version="1.1" xmlns="http://www.w3.org/2000/svg" p-id="3998" xmlns:xlink="http://www.w3.org/1999/xlink" width="60.375" height="48"><path d="M1059.242667 702.4384c-0.3328 28.424533-17.578667 47.377067-43.281067 47.744-24.3456 0-41.250133-20.411733-41.591467-49.928533-0.3328-27.6992 15.8976-47.018667 39.560534-47.377067 26.717867-0.366933 45.653333 20.411733 45.312 49.5616z" fill="#000000" p-id="3999"></path><path d="M234.427733 751.6416c-41.591467-0.366933-78.788267-41.181867-78.788266-86.3744 0-46.6432 37.5296-85.640533 82.500266-85.640533 45.312 0 82.176 38.6304 82.176 85.640533-0.341333 47.744-39.227733 86.7328-85.888 86.3744z m1.348267-132.6592c26.709333-1.092267 46.660267 17.1264 47.675733 43.3664 1.024 24.7808-19.950933 47.018667-44.970666 48.110933-24.686933 1.092267-44.629333-17.134933-45.986134-41.915733-1.3568-25.514667 18.602667-48.469333 43.281067-49.5616zM1015.9616 750.1824c25.7024-0.366933 42.948267-19.319467 43.281067-47.744 0.341333-29.149867-18.594133-49.92-45.312-49.5616-23.662933 0.366933-39.893333 19.677867-39.560534 47.377067 0.341333 29.525333 17.245867 49.92 41.591467 49.92zM849.979733 148.864c-15.530667-1.706667-34.961067-1.706667-48.170666-2.551467l-410.538667-3.669333H290.261333a6.5792 6.5792 0 0 1-1.911466 0.273067l-62.1568 5.0944c-18.449067 0.136533-36.778667 3.285333-54.382934 9.344-24.8576 9.335467-39.620267 45.0816-41.949866 72.251733-1.5616 27.707733-1.5616 149.358933 0 177.066667 1.365333 12.544 6.570667 24.200533 14.762666 33.109333a43.264 43.264 0 0 0 13.047467 12.296533c5.077333 3.072 60.4928 8.891733 66.2784 9.472L405.5296 460.8c69.009067 0.1792 138.018133-0.008533 207.018667-0.2048 88.900267-0.256 177.792-0.503467 266.683733 0.0512l18.141867-0.494933c13.943467-1.288533 26.914133-8.32 36.292266-19.669334 9.378133-11.349333 14.455467-26.171733 14.208-41.463466 0-24.618667 0-143.957333-0.776533-169.4208a62.4384 62.4384 0 0 0-12.945067-34.269867c-7.543467-9.6256-17.706667-33.425067-29.0048-36.283733-17.877333-4.2496-39.6288-8.490667-55.168-10.1888z m33.7152 264.285867H555.460267l-299.434667 1.706666-62.165333-1.706666a22.6816 22.6816 0 0 1-14.993067-8.302934 26.8544 26.8544 0 0 1-5.973333-17.160533c-0.648533-12.782933-1.1008-151.543467-1.092267-160.6144 1.083733-19.848533 7.611733-23.9104 66.679467-27.4944 46.6176-2.542933 92.3392 0 144.042666 0h334.1312l117.316267 6.792533c18.517333 1.237333 36.9408 3.7888 55.159467 7.645867 4.548267 1.2544 8.661333 3.925333 11.835733 7.697067 3.1744 3.771733 5.265067 8.4736 6.033067 13.525333 1.877333 10.1632 2.798933-13.653333 2.7648-3.345067 0.085333 13.056-1.348267 154.103467-4.317867 166.826667-0.776533 4.241067-5.435733 7.637333-8.541867 10.1888a34.961067 34.961067 0 0 1-13.2096 4.241067z" fill="#000000" p-id="4000"></path><path d="M927.701333 461.184c-10.581333-0.221867-27.6224-0.401067-48.469333-0.529067-88.891733-0.554667-177.783467-0.298667-266.683733-0.0512-69.000533 0.196267-138.0096 0.384-207.018667 0.2048-7.645867-0.017067-15.2832-0.059733-22.929067-0.1024-25.813333-0.1536-51.575467-0.298667-77.175466 0.477867l-81.493334 0.366933a298.2912 298.2912 0 0 0-31.104 7.287467c-78.446933 24.055467-132.548267 76.535467-144.042666 164.727467-10.487467 78.72 13.858133 149.777067 78.779733 193.5104 104.823467 70.7072 228.2496 38.6304 278.289067-79.0784 0.964267-2.269867 1.792-4.693333 2.645333-7.150934 7.0912-30.4896 10.922667-48.5888 10.88-85.777066-14.199467-83.822933-17.578667-90.385067-71.005867-154.1632 26.4704 0 52.0704-0.085333 77.243734-0.187734 16.981333-0.059733 45.6448-0.034133 69.538133-0.017066 10.333867 0.017067 19.780267 0.017067 27.008 0.017066 11.3664 0.0512 13.730133 0.042667 16.443733 0.034134 2.500267 0 5.307733-0.017067 15.786667 0.017066 16.238933 0.0512 44.817067 0.1024 78.660267 0.170667h0.0512c48.6912 0.085333 108.2368 0.187733 157.559466 0.341333 16.674133 0.0512 32.896 0.1024 48.128 0.170667 34.935467 0.145067 64.682667 0.324267 82.824534 0.546133 2.414933 0.085333 5.239467-0.324267 8.157866-0.7424 9.2928-1.3568 19.473067-2.833067 20.241067 11.3152 0.238933 4.241067 1.015467 8.7296 1.809067 13.294934 2.525867 14.651733 5.188267 30.08-9.250134 40.644266-31.778133 23.688533-53.76 55.389867-65.937066 94.378667-7.970133 32.503467-5.469867 48.853333-1.4336 75.264l0.418133 2.730667c21.981867 86.3744 86.229333 133.0176 168.055467 120.2688 28.373333-8.610133 45.866667-16.699733 83.182933-43.733334 58.504533-106.410667 58.1632-149.418667-3.3792-232.149333 14.848 1.450667 29.218133 1.109333 43.195733 0.768 55.022933 0.529067 73.088-9.745067 71.773867-55.799467 0.477867-17.834667 0.349867-35.669333 0.2304-53.504-0.136533-20.0704-0.273067-40.132267 0.443733-60.194133 1.015467-27.6992-10.478933-37.179733-34.1504-36.078933-11.4688 0.5888-22.946133 0.426667-34.414933 0.2816-9.8304-0.128-19.6608-0.256-29.4912 0.085333l-104.149333-0.366933c-22.2976 1.578667-30.071467 1.322667-30.071467 1.322666-9.2416 0-15.453867 0.554667-28.996267 10.410667-16.426667 11.946667-32.4864 23.6288-27.1616 45.841067 4.4032 18.952533-4.727467 25.514667-22.9888 25.147733z m-695.6544 44.458667c82.176-3.643733 148.113067 65.604267 150.4768 158.532266 2.363733 84.181333-59.511467 155.246933-136.942933 156.706134-88.593067 2.193067-159.607467-66.321067-161.297067-155.613867-1.6896-85.640533 62.890667-155.613867 147.7632-159.624533zM910.7968 713.386667c-2.705067-77.2608 35.84-121.002667 109.550933-123.904 52.753067-1.826133 105.4976 48.469333 111.249067 99.1232 7.441067 67.780267-60.526933 130.466133-111.9232 132.283733-54.101333 1.826133-106.513067-49.92-108.8768-107.502933z m100.087467-293.009067c61.8752-8.021333 61.8752-8.021333 61.8752 64.512 0 63.7696-8.789333 70.690133-67.285334 58.299733-12.8512-2.909867-17.5872-8.379733-17.245866-22.229333 0.674133-25.147733 0.674133-50.653867-0.341334-75.8016-0.674133-16.042667 5.751467-23.3216 19.950934-24.413867 0.512 0 1.015467-0.093867 1.518933-0.187733 0.512-0.085333 1.015467-0.1792 1.527467-0.1792z m190.370133 32.802133c-1.169067 7.074133-0.878933 14.327467-0.5888 21.512534 0.119467 3.1744 0.247467 6.331733 0.247467 9.463466 0 2.184533 0 4.736 0.682666 6.920534 0 55.031467-9.130667 62.318933-60.868266 52.846933-11.835733-2.193067-13.184-8.388267-13.525334-18.2272-0.162133-4.7104-0.349867-9.4464-0.5376-14.190933v-0.034134l-0.213333-5.512533c-0.494933-12.885333-0.938667-25.8048-0.938667-38.570667-0.042667-7.168-0.196267-13.2608-0.3328-18.432-0.384-14.941867-0.5632-22.212267 2.7136-25.856 3.114667-3.464533 9.335467-3.669333 21.4528-4.061866 5.051733-0.170667 11.127467-0.366933 18.432-0.853334 25.7024-1.8176 37.870933 5.111467 33.476267 34.986667z" fill="#000000" p-id="4001"></path><path d="M589.380267 502.954667h35.968c-1.28-0.068267-2.628267-0.017067-4.0448-0.017067H527.428267c5.802667 3.524267 12.663467 10.410667 12.663466 15.172267 0 43.067733 0 199.893333-0.5632 242.9696-0.5632 43.067733 32.4864 0 32.4864 0 0-38.229333-0.554667-199.159467 0-237.3888 0.315733-4.6592 1.6896-9.053867 3.908267-12.509867s5.179733-5.7856 8.413867-6.6304l5.0432-1.595733zM493.585067 504.533333l5.034666-1.595733h28.808534a17.809067 17.809067 0 0 0-4.48-2.048c-25.284267-0.0512-46.267733-0.093867-59.306667-0.136533-10.478933-0.034133-13.2864-0.0256-15.786667-0.017067-2.722133 0.008533-5.077333 0.017067-16.443733-0.034133 5.597867 0.802133 17.92 11.008 17.92 17.390933 0 43.067733 0 199.893333-0.5632 242.961067-0.554667 43.076267 32.494933 0 32.494933 0 0-38.229333-0.5632-199.150933 0-237.380267 0.3072-4.6592 1.681067-9.053867 3.899734-12.509867 2.2272-3.456 5.179733-5.7856 8.4224-6.6304zM665.002667 539.630933c-0.392533-25.796267 7.2704-33.877333 18.286933-36.676266h-57.941333c5.819733 0.315733 9.9584 3.1232 9.9584 24.712533v233.386667c0 39.9104 29.696 0 29.696 0-0.477867-18.158933-0.119467-215.953067 0-221.422934z" fill="#000000" p-id="4002"></path><path d="M755.754667 539.648c-0.5632-37.486933 15.872-37.572267 34.909866-38.365867-49.322667-0.1536-108.8768-0.256-157.559466-0.341333h-0.0512c-33.8432-0.068267-62.421333-0.119467-78.660267-0.170667-10.478933-0.034133-13.2864-0.0256-15.786667-0.017066-2.7136 0.008533-5.077333 0.017067-16.443733-0.034134 0.256 0.042667 0.512 0.085333 0.785067 0.170667l19.4048 0.0256h0.0512c48.674133 0.085333 108.202667 0.196267 157.508266 0.341333-5.9392 0.256-11.630933 0.426667-16.622933 1.706667h28.7744c7.842133 0 13.994667-1.604267 13.994667 24.721067 0 26.3168 0.8448 194.141867 0 233.386666-0.827733 39.253333 29.696 0 29.696 0-0.477867-18.158933-0.119467-215.953067 0-221.422933z" fill="#000000" p-id="4003"></path></svg>