<?xml version="1.0" standalone="no"?><!DOCTYPE svg PUBLIC "-//W3C//DTD SVG 1.1//EN" "http://www.w3.org/Graphics/SVG/1.1/DTD/svg11.dtd"><svg t="1764234655591" class="icon" viewBox="0 0 1288 1024" version="1.1" xmlns="http://www.w3.org/2000/svg" p-id="3683" xmlns:xlink="http://www.w3.org/1999/xlink" width="60.375" height="48"><path d="M845.909333 403.191467c-80.904533 68.164267-155.648 142.907733-227.925333 220.5184-17.237333 18.4832-22.997333 34.500267-11.093333 58.7264 10.683733 21.76 23.005867 33.262933 48.469333 29.9776 17.655467-2.048 36.949333-1.2288 35.720533 24.234666-1.2288 25.864533-22.1696 21.3504-38.596266 21.3504-65.706667 1.2288-68.992 2.048-87.466667-59.9552-11.912533-41.070933-40.251733-25.463467-64.477867-29.1584-27.511467-4.522667-32.034133 12.731733-37.7856 32.443734-29.149867 96.503467-99.7888 154.402133-193.826133 159.744-85.828267 5.341867-172.885333-48.042667-206.5664-126.481067-49.271467-114.577067 5.341867-244.753067 119.918933-286.2336 115.387733-41.472 246.391467 26.282667 279.2448 144.145067 7.389867 27.101867 38.186667 41.0624 63.240534 29.9776 10.6752-4.932267 7.799467-12.322133 5.341866-19.3024-27.9296-75.153067-55.850667-150.2976-84.189866-225.450667-3.694933-9.856-8.209067-22.178133-20.9408-7.389867-14.788267 17.655467-35.319467 16.017067-55.031467 16.836267-78.020267 2.4576-156.049067 4.104533-234.069333 5.333333-16.426667 0.4096-39.0144 5.341867-38.1952-20.5312 0.8192-20.5312 20.1216-25.454933 38.1952-26.282666 71.4496-2.466133 142.907733-4.923733 213.947733-6.570667 33.672533-0.8192 62.830933-1.6384 68.1728-46.813867 2.875733-24.234667 27.921067-24.635733 48.042667-24.234666 99.3792 1.646933 198.3488 2.884267 297.728 6.1696 29.9776 0.8192 40.661333-2.474667 31.214933-36.9664-18.4832-68.573867-5.751467-82.5344 64.469333-82.5344h19.712c112.110933-1.646933 94.045867 24.226133 92.808534 107.997866-0.4096 16.017067-5.333333 34.500267-25.873067 33.262934-19.293867-1.2288-24.226133-17.245867-22.5792-34.901334 0.8192-7.808-0.418133-16.017067 0.8192-23.825066 3.694933-22.997333-3.285333-32.853333-29.1584-32.4352-68.992 0.8192-69.4016-16.426667-44.757333 59.136 15.189333 45.994667 35.720533 90.3424 51.7376 136.337066 9.0368 25.454933 24.226133 29.149867 48.4608 23.406934 116.215467-27.101867 223.394133 28.330667 266.922666 136.746666 48.4608 121.147733-13.960533 253.380267-140.4416 296.0896-124.023467 42.2912-256.256-26.282667-289.928533-152.362666-22.587733-83.771733-10.666667-162.619733 55.031467-221.7472 35.319467-31.624533 27.511467-51.746133 3.694933-79.2576z m51.7376 92.808533c-72.686933 53.384533-94.865067 149.888-53.802666 227.498667 41.480533 78.4384 135.108267 116.224 219.298133 88.2944 87.057067-28.7488 141.678933-120.7296 121.5488-204.919467-22.9888-96.512-112.520533-158.1056-206.967467-142.498133-27.921067 4.522667-38.6048 12.731733-20.1216 42.299733 25.045333 40.2432 43.938133 83.771733 66.525867 125.661867 8.6272 16.017067 12.322133 29.9776-6.570667 39.8336-18.0736 9.4464-26.282667-5.341867-34.491733-16.426667-8.6272-11.502933-14.788267-24.644267-21.768533-37.376-21.3504-40.2432-42.299733-81.3056-63.650134-122.368zM337.92 668.475733v0.8192c-19.712 0-39.8336 0.4096-59.5456 0-38.6048-0.8192-49.28-18.0736-31.624533-52.974933 17.245867-34.082133 36.548267-66.935467 53.794133-101.0176 4.113067-8.2176 18.0736-23.825067-4.514133-26.282667-44.765867-4.522667-89.5232-8.2176-129.7664 18.884267-57.088 38.6048-87.466667 105.540267-74.325334 166.314667 16.836267 77.2096 68.164267 126.890667 143.317334 138.8032 62.0032 9.856 132.642133-25.864533 165.905066-84.590934 9.4464-16.426667 27.511467-35.319467 16.836267-53.794133-8.618667-13.969067-32.034133-4.522667-48.4608-5.751467-10.6752-0.8192-21.3504-0.4096-31.616-0.4096z m239.8208-68.992c24.234667-25.053867 43.528533-45.994667 64.059733-66.116266 57.088-57.088 114.167467-114.167467 171.246934-170.837334 8.618667-8.209067 17.245867-15.598933 14.378666-29.9776-2.875733-13.550933-12.731733-11.093333-21.358933-11.093333-101.845333-0.810667-203.690667-1.220267-305.527467-2.048-15.607467 0-25.463467 1.646933-17.664 22.587733 31.624533 82.952533 61.184 166.724267 94.865067 257.4848z m-279.6544 23.406934c23.808 0 41.8816 0.8192 59.5456-0.4096 20.5312-1.237333 52.565333 10.2656 58.717867-4.932267 10.274133-24.226133-12.3136-48.452267-27.511467-69.802667-5.341867-7.3984-13.141333-13.141333-19.3024-19.712-9.856-10.274133-16.426667-10.274133-23.406933 3.6864-14.370133 28.757333-29.9776 57.088-48.042667 91.170134zM446.327467 203.605333c-32.853333 0-66.116267 0.4096-98.961067 0-15.197867-0.4096-30.395733-4.104533-29.986133-23.816533 0.418133-15.607467 13.559467-24.234667 26.7008-24.234667 68.573867-0.8192 137.565867-0.8192 206.148266 0 15.607467 0 24.234667 10.683733 22.997334 26.282667-0.8192 13.969067-10.2656 20.539733-24.234667 20.539733H445.917867c0.4096 0.4096 0.4096 0.8192 0.4096 1.2288z" fill="#000000" p-id="3684"></path></svg>