<?xml version="1.0" standalone="no"?><!DOCTYPE svg PUBLIC "-//W3C//DTD SVG 1.1//EN" "http://www.w3.org/Graphics/SVG/1.1/DTD/svg11.dtd"><svg t="1764228890269" class="icon" viewBox="0 0 1297 1024" version="1.1" xmlns="http://www.w3.org/2000/svg" p-id="1904" xmlns:xlink="http://www.w3.org/1999/xlink" width="60.796875" height="48"><path d="M529.092267 134.741333c154.692267 0 309.393067 0.699733 464.4352-0.349866 42.4448-0.349867 76.4672 14.378667 96.8192 50.517333 55.773867 97.860267 128.733867 184.8576 180.650666 285.184 10.171733 19.643733 15.0784 39.9872 15.428267 61.730133 0.708267 56.482133 2.107733 112.955733 2.107733 169.429334 0 46.301867-18.235733 67.003733-64.187733 69.102933-17.8944 0.699733-22.801067 9.130667-27.016533 22.4512-20.343467 64.546133-59.281067 96.8192-117.154134 96.8192-61.738667 0-105.941333-31.573333-124.885333-93.661867-5.956267-19.9936-15.0784-23.5008-32.9728-23.5008-146.978133 0.699733-293.597867 1.0496-440.576 0.349867-21.4016 0-29.815467 4.9152-35.780267 27.357867-15.4368 57.181867-68.053333 91.554133-128.384 89.105066-57.8816-2.4576-105.591467-38.237867-117.162666-94.011733-4.215467-20.693333-11.9296-24.200533-30.165334-25.9584-59.639467-6.314667-62.097067-7.364267-58.9312-68.4032 1.749333-35.072-8.772267-43.844267-42.4448-41.045333-51.9168 4.565333-59.989333-5.6064-59.989333-58.9312 0-137.856 0-275.712-0.341333-413.568 0-46.301867 3.848533-50.517333 49.450666-50.517334h471.099734v-2.0992zM442.811733 619.869867v1.408h362.709334c16.128 0 30.865067 2.4576 30.5152-23.150934-1.408-132.2496-1.0496-264.490667-0.699734-396.740266 0-18.5856-5.973333-22.101333-23.150933-22.101334-246.254933 0.3584-492.8512 0.708267-739.0976 0-19.9936 0-24.209067 7.022933-24.209067 25.258667 0.708267 128.7424 1.058133 257.826133 0 386.56-0.341333 24.558933 7.722667 29.824 31.223467 29.474133 120.661333-1.408 241.6896-0.708267 362.709333-0.708266z m642.628267-364.808534c-20.343467-52.616533-51.566933-80.3328-85.239467-78.933333-32.622933 1.408-65.595733 3.8656-98.218666 2.4576-24.5504-1.0496-29.815467 8.072533-29.815467 31.223467 1.399467 161.706667 1.0496 323.413333 2.107733 485.128533 0 12.629333-9.472 36.48 11.5712 35.780267 25.9584-0.699733 61.3888 19.9936 77.8752-17.186134 22.101333-49.4592 61.738667-66.304 111.547734-66.645333 49.109333-0.3584 89.096533 18.5856 108.040533 65.9456 10.871467 27.357867 30.165333 17.186133 47.351467 16.836267 21.4016 0 15.086933-18.244267 16.136533-30.5152 0.708267-9.130667-1.0496-18.244267 0-27.016534 2.807467-23.150933-5.256533-33.672533-29.4656-30.5152-12.9792 1.749333-26.658133 0-27.707733-16.4864-1.0496-16.836267 10.871467-25.258667 26.308266-23.150933 29.815467 4.5568 34.0224-10.88 31.223467-35.072-1.757867-15.786667-2.107733-31.573333-1.408-47.36 1.0496-22.4512-9.122133-28.066133-30.5152-27.716267-82.432 1.0496-164.872533 0-247.6544 0.699734-24.9088 0.349867-37.879467-7.714133-37.5296-35.072 1.0496-57.531733 1.0496-115.413333 0-172.936534-0.349867-21.751467 7.714133-30.523733 29.4656-30.165333 41.736533 1.399467 82.432 0.699733 125.9264 0.699733z m129.092267 197.8368c-25.258667-57.173333-70.161067-96.110933-93.312-148.736-4.5568-10.1632-14.0288-9.813333-23.150934-9.813333-36.130133 0.341333-72.260267 1.399467-108.040533 0.699733-17.8944-0.349867-23.5008 6.314667-23.150933 23.5008 1.0496 36.130133 1.0496 72.260267 0 108.040534-0.349867 18.244267 5.256533 26.308267 24.900266 26.308266 73.3184-0.699733 146.628267 0 222.754134 0zM415.086933 659.5072c15.786667 20.701867 27.016533 36.48 30.8736 55.074133 3.857067 18.594133 13.678933 21.751467 30.865067 21.751467 111.8976-0.699733 223.803733-1.0496 335.351467-0.349867 17.186133 0 25.6-2.816 23.150933-21.751466-1.408-11.221333-1.058133-22.801067 0-33.672534 1.399467-15.786667-3.157333-21.4016-20.352-21.051733-130.4832 0.349867-261.674667 0-399.889067 0z m0.349867 104.192c1.058133-49.467733-40.686933-97.877333-86.289067-100.3264-44.202667-2.107733-94.3616 47.351467-96.4608 95.761067-2.107733 46.301867 40.337067 90.146133 89.088 92.603733 45.960533 1.757867 92.612267-41.745067 93.661867-88.046933z m574.933333 4.206933c0.699733 45.243733 41.045333 84.5312 85.239467 83.831467 45.602133-1.0496 85.239467-40.337067 84.8896-84.539733-0.349867-46.651733-40.686933-85.239467-87.697067-84.539734-45.602133 0.349867-83.131733 39.287467-82.432 85.248zM236.893867 659.498667c-24.200533 0-47.36-0.341333-70.510934 0-6.314667 0-16.836267 0.349867-18.235733 3.8656-7.3728 17.885867-4.9152 37.179733-2.4576 55.773866 1.757867 13.678933 15.786667 8.763733 24.9088 10.5216 18.235733 3.498667 29.115733-3.857067 34.730667-21.751466 6.314667-18.944 19.285333-34.730667 31.5648-48.4096z" fill="#000000" p-id="1905"></path><path d="M353.706667 771.413333c-1.757867 11.9296-9.472 24.558933-29.115734 22.801067-19.643733-1.749333-31.9232-13.678933-30.173866-33.322667 1.757867-18.944 15.445333-31.223467 34.730666-29.115733 17.885867 1.757867 26.658133 15.086933 24.558934 39.637333zM1090.696533 766.148267c-1.058133 18.594133-11.579733 29.115733-29.4656 29.4656-14.737067 0-26.308267-9.472-26.666666-24.5504-0.349867-17.186133 10.171733-30.8736 27.716266-31.9232 16.836267-1.399467 26.308267 10.5216 28.416 27.008z" fill="#000000" p-id="1906"></path><path d="M0.3584 600.925867c0-137.856 0-275.712-0.3584-413.550934v-0.017066c0-11.537067 0.2304-21.102933 1.416533-28.740267 1.194667-7.68 3.515733-14.583467 8.635734-19.831467 5.1456-5.282133 11.972267-7.722667 19.592533-8.977066 7.543467-1.245867 16.981333-1.501867 28.347733-1.501867v8.533333c-45.602133 0-49.4592 4.215467-49.4592 50.517334C8.891733 325.213867 8.891733 463.069867 8.891733 600.925867c0 53.316267 8.072533 63.488 59.989334 58.9312 33.672533-2.798933 44.194133 5.973333 42.436266 41.045333-3.157333 61.038933-0.699733 62.088533 58.9312 68.4032 18.244267 1.749333 25.9584 5.256533 30.173867 25.949867 11.5712 55.7824 59.281067 91.562667 117.162667 94.020266 58.453333 2.3808 109.653333-29.815467 126.8224-83.805866l1.5616-5.290667c5.9648-22.4512 14.378667-27.3664 35.771733-27.3664 146.978133 0.699733 293.6064 0.341333 440.584533-0.349867 17.8944 0 27.016533 3.5072 32.9728 23.509334 18.3552 60.142933 60.407467 91.648 119.1424 93.550933l5.7344 0.1024c56.072533 0 94.370133-30.293333 115.2-90.862933l1.9712-5.956267c3.9424-12.4928 8.4992-20.676267 23.799467-22.229333l3.208533-0.213334c45.952-2.107733 64.187733-22.8096 64.187734-69.12 0-42.350933-0.7936-84.701867-1.4848-127.061333l-0.622934-42.359467c-0.349867-21.742933-5.256533-42.094933-15.4368-61.738666-51.908267-100.317867-124.8768-187.3152-180.642133-285.184-19.712-34.9952-52.258133-49.92-92.859733-50.500267h-3.959467c-155.050667 1.0496-309.742933 0.341333-464.4352 0.341333v2.0992H57.992533v-8.533333h462.5664v-2.0992h8.533334c154.743467 0 309.367467 0.708267 464.375466-0.341333 44.663467-0.366933 82.030933 15.325867 104.285867 54.8096 27.6736 48.5632 59.630933 94.446933 91.4176 141.090133 31.701333 46.523733 63.189333 93.730133 89.403733 144.401067 10.8032 20.855467 16.008533 42.496 16.384 65.518933v0.034133c0.699733 56.32 2.107733 112.989867 2.107734 169.531734 0 24.021333-4.6848 43.3664-17.109334 56.900266-12.4928 13.602133-31.214933 19.626667-55.2192 20.736h-0.059733c-7.611733 0.298667-11.0336 2.1504-13.047467 4.096-2.039467 1.979733-3.652267 4.983467-5.4016 10.069334l-0.759466 2.321066c-10.504533 33.322667-26.0608 59.136-47.2064 76.6208-21.256533 17.578667-47.470933 26.1632-78.097067 26.1632-32.349867 0-60.706133-8.2944-83.566933-25.224533-22.8608-16.930133-39.560533-42.026667-49.467734-74.478933l-0.017066-0.0512c-2.722133-9.130667-5.666133-12.7232-8.448-14.506667-3.0464-1.962667-7.620267-2.901333-16.341334-2.901333-146.9696 0.699733-293.6064 1.0496-440.6016 0.341333-10.410667 0-15.445333 1.3056-18.628266 3.626667-3.0976 2.261333-6.0416 6.698667-8.8832 17.408l-0.017067 0.017066c-16.605867 61.508267-73.1648 98.005333-136.968533 95.4112H317.201067c-61.2352-2.594133-112.674133-40.686933-125.149867-100.804266l-0.008533-0.034134c-1.9712-9.693867-4.394667-13.252267-6.698667-15.044266-2.5856-2.013867-6.766933-3.242667-15.9232-4.113067l-0.085333-0.008533c-14.737067-1.5616-26.624-2.858667-35.7888-4.932267-9.173333-2.082133-17.1008-5.239467-22.715734-11.588267-5.632-6.382933-7.765333-14.651733-8.533333-24.123733-0.776533-9.454933-0.298667-21.5552 0.4864-36.693333 0.8704-17.442133-1.698133-24.712533-5.256533-28.066134-3.643733-3.421867-11.093333-5.4272-27.963734-4.027733-13.115733 1.143467-24.132267 1.450667-33.1776 0.162133-9.1904-1.3056-17.066667-4.352-23.0656-10.4448-5.922133-6.007467-9.0368-14.011733-10.760533-23.236266-1.723733-9.198933-2.218667-20.5056-2.218667-33.92z m328.789333 62.4384c45.602133 2.4576 87.3472 50.8672 86.2976 100.3264-1.041067 45.585067-46.267733 88.439467-91.511466 88.0896l-2.1504-0.042667c-47.991467-2.423467-89.873067-44.945067-89.173334-90.436267l0.0768-2.167466c2.0992-48.4096 52.266667-97.877333 96.4608-95.761067zM1072.802133 682.666667c47.0016-0.699733 87.3472 37.888 87.697067 84.539733 0.349867 44.202667-39.287467 83.4816-84.8896 84.539733-44.194133 0.699733-84.539733-38.587733-85.239467-83.84-0.699733-45.943467 36.829867-84.8896 82.432-85.239466z m-744.106666-10.769067c-18.909867-0.887467-40.285867 9.3696-57.557334 26.478933-17.220267 17.058133-28.996267 39.594667-29.9264 61.1328v0.017067c-1.877333 41.1136 36.386133 81.390933 80.896 83.694933 20.224 0.768 41.250133-8.465067 57.4976-23.7056 16.247467-15.232 26.837333-35.618133 27.306667-56.004266 0.469333-22.3232-8.746667-44.8-23.586133-62.037334-14.865067-17.271467-34.679467-28.501333-54.6304-29.576533z m744.174933 19.3024c-40.772267 0.315733-74.5984 35.268267-73.966933 76.578133 0.631467 40.618667 37.1456 76.032 76.5184 75.434667 41.233067-0.964267 76.859733-36.693333 76.544-75.938133-0.315733-41.7792-36.6336-76.706133-79.035734-76.074667h-0.059733z m-11.306667 39.441067c10.786133-0.896 19.925333 2.5344 26.564267 9.352533 6.4 6.5792 9.821867 15.624533 11.0336 25.088l0.093867 0.776533-0.042667 0.785067c-0.6144 10.7776-4.0448 20.258133-10.9056 27.127467-6.903467 6.903467-16.3072 10.180267-26.914133 10.3936h-0.170667c-9.173333 0-17.851733-2.9696-24.388267-8.789334-6.613333-5.888-10.5728-14.293333-10.8032-24.106666v-1.962667c0.187733-9.642667 3.2512-18.705067 9.147734-25.728 6.314667-7.534933 15.470933-12.228267 26.385066-12.936533z m-761.9072 1.3312c8.029867-6.869333 18.688-9.949867 30.421334-8.669867h-0.008534c11.050667 1.109333 20.283733 6.007467 26.069334 15.2064 5.5552 8.823467 7.1936 20.4288 6.058666 33.6384l-0.017066 0.256-0.034134 0.264533c-1.058133 7.168-3.9936 15.291733-10.376533 21.435734-6.638933 6.382933-16.034133 9.685333-27.946667 8.618666-11.298133-1.006933-21.461333-5.034667-28.561066-12.612266-7.236267-7.7056-10.402133-18.1248-9.344-29.969067l0.008533-0.034133c1.0496-11.332267 5.751467-21.316267 13.738667-28.1344z m791.04 34.184533c-2.107733-16.4864-11.579733-28.416-28.424533-27.008l-1.6128 0.136533c-16.5632 1.774933-26.427733 15.1296-26.094933 31.786667 0.3328 14.139733 10.5216 23.3472 23.936 24.448l2.722133 0.110933c16.776533-0.3328 27.076267-9.6 29.1584-26.077866l0.315733-3.396267zM329.147733 731.776c-19.285333-2.107733-32.9728 10.171733-34.730666 29.115733l-0.119467 1.8176c-0.853333 18.56 11.264 29.806933 30.293333 31.505067 18.4064 1.646933 26.3424-9.344 28.706134-20.5568l0.401066-2.235733c2.048-23.790933-6.126933-37.0432-22.894933-39.4496l-1.655467-0.196267z m485.828267-72.2688c17.186133-0.341333 21.76 5.265067 20.352 21.051733-1.058133 10.871467-1.408 22.4512 0 33.672534 2.449067 18.944-5.973333 21.76-23.150933 21.76l-41.847467-0.221867c-97.681067-0.392533-195.592533-0.0512-293.504 0.5632l-3.131733-0.042667c-14.242133-0.384-22.912-3.780267-26.939734-18.397866l-0.7936-3.310934c-3.857067-18.5856-15.086933-34.372267-30.865066-55.074133 138.205867 0 269.397333 0.349867 399.880533 0z m185.216-483.370667c33.672533-1.408 64.896 26.308267 85.239467 78.9248-43.4944 0-84.189867 0.699733-125.9264-0.699733-21.751467-0.349867-29.824 8.413867-29.474134 30.165333 1.058133 57.5232 1.058133 115.4048 0 172.936534-0.349867 27.357867 12.629333 35.421867 37.538134 35.072 82.781867-0.699733 165.213867 0.349867 247.645866-0.699734 21.4016-0.349867 31.581867 5.265067 30.523734 27.716267l-0.213334 5.9136c-0.375467 13.815467 0.085333 27.6224 1.621334 41.437867 2.7136 23.4496-1.152 38.664533-28.501334 35.447466l-2.722133-0.366933c-15.428267-2.0992-27.357867 6.314667-26.308267 23.150933 1.058133 16.4864 14.728533 18.235733 27.707734 16.4864 24.209067-3.157333 32.273067 7.364267 29.474133 30.5152-1.058133 8.763733 0.699733 17.8944 0 27.016534-1.058133 12.279467 5.256533 30.5152-16.136533 30.5152-17.186133 0.349867-36.488533 10.5216-47.36-16.8448-18.346667-45.8752-56.456533-65.0752-103.466667-65.911467l-4.573867-0.0256c-49.809067 0.341333-89.454933 17.186133-111.547733 66.645333-16.4864 37.179733-51.9168 16.4864-77.8752 17.186134-19.729067 0.657067-12.637867-20.266667-11.6736-33.288534l0.093867-2.4832c-1.0496-161.706667-0.6912-323.421867-2.0992-485.137066 0-23.150933 5.265067-32.264533 29.815466-31.214934 32.622933 1.399467 65.595733-1.058133 98.218667-2.4576zM166.382933 659.5072c23.150933-0.341333 46.3104 0 70.510934 0-12.279467 13.678933-25.258667 29.474133-31.573334 48.4096l-1.109333 3.242667c-5.495467 14.4896-15.121067 20.9152-30.2848 19.029333l-3.328-0.520533c-8.840533-1.698133-22.272 2.850133-24.704-9.2928l-0.2048-1.2288c-2.449067-18.602667-4.9152-37.888 2.4576-55.7824 1.399467-3.498667 11.921067-3.857067 18.235733-3.857067z m648.618667 8.533333c-125.141333 0.341333-250.948267 0.034133-382.907733 0.008534 10.709333 14.8992 18.901333 28.808533 22.2208 44.8 1.664 7.995733 4.1984 10.871467 6.536533 12.305066 2.8928 1.7664 7.5008 2.645333 15.957333 2.645334 111.889067-0.708267 223.803733-1.058133 335.377067-0.3584 4.138667 0 7.296-0.170667 9.710933-0.597334 2.432-0.426667 3.515733-1.006933 3.976534-1.365333 0.2048-0.162133 2.116267-1.450667 0.989866-10.154667v-0.034133c-1.5104-12.066133-1.109333-24.32-0.0256-35.5584 0.6656-7.594667-0.546133-9.4976-0.938666-9.924267-0.418133-0.426667-2.423467-1.937067-10.752-1.7664h-0.145067z m-648.482133 0h-0.136534a72.277333 72.277333 0 0 0-9.728 0.529067c-0.571733 0.085333-1.058133 0.1792-1.450666 0.264533-4.625067 12.9024-3.8144 26.862933-1.954134 42.1632l0.904534 7.031467v0.034133c0.2304 1.8432 0.708267 2.005333 0.512 1.834667 0.0512 0.042667 0.512 0.3328 1.937066 0.5376 1.6896 0.238933 3.669333 0.238933 6.493867 0.238933 2.500267 0 5.905067 0 9.1136 0.6144 7.748267 1.4848 12.603733 0.4352 15.889067-1.664 3.387733-2.158933 6.613333-6.382933 9.088-14.250666l0.017066-0.085334 0.017067-0.068266c4.7104-14.1312 12.731733-26.478933 21.265067-37.248-17.681067-0.085333-34.781867-0.187733-51.968 0.068266z m645.6576-488.746666c17.186133 0 23.150933 3.5072 23.150933 22.101333-0.349867 132.241067-0.708267 264.490667 0.699733 396.731733 0.3072 22.4-10.9312 23.3216-24.558933 23.202134l-5.956267-0.0512v-8.533334c4.514133 0 7.825067 0.145067 11.221334-0.008533 3.259733-0.1536 5.316267-0.580267 6.664533-1.194667a4.829867 4.829867 0 0 0 2.56-2.619733c0.8192-1.7664 1.6128-4.974933 1.536-10.6752v-0.0256c-1.408-132.3008-1.0496-264.6016-0.699733-396.8256l-0.0768-3.072c-0.315733-6.4512-1.6128-8.064-2.158934-8.5504-0.955733-0.836267-3.592533-1.9456-12.381866-1.9456-246.237867 0.349867-492.8512 0.699733-739.106134 0-9.5232 0-12.219733 1.792-13.184 2.8928-1.245867 1.408-2.474667 4.693333-2.474666 13.824 0.699733 128.733867 1.0496 257.851733 0 386.628267v0.0512c-0.170667 11.972267 1.911467 15.906133 3.780266 17.5616 2.2016 1.9456 6.912 3.438933 18.773334 3.259733h0.0256c120.738133-1.408 241.860267-0.708267 362.811733-0.708267h8.533333v1.408h354.176v8.533334H442.8032v-1.408c-121.019733 0-242.039467-0.699733-362.709333 0.708266-22.033067 0.324267-30.498133-4.2752-31.1808-25.088l-0.034134-4.3776c1.0496-128.7424 0.699733-257.834667 0-386.568533 0-18.235733 4.206933-25.250133 24.200534-25.258667 246.2464 0.708267 492.8512 0.3584 739.0976 0z m285.883733 115.0464c9.122133 0 18.5856-0.341333 23.150933 9.8304 23.150933 52.616533 68.053333 91.554133 93.303467 148.736-76.117333 0-149.4272-0.708267-222.737067 0l-3.524266-0.1024c-16.802133-0.955733-21.717333-9.1136-21.384534-26.2144 1.0496-35.780267 1.0496-71.9104 0-108.032-0.349867-17.194667 5.256533-23.8592 23.150934-23.509334l13.431466 0.187734c31.377067 0.256 62.993067-0.5888 94.609067-0.896z m0.059733 8.533333c-35.899733 0.349867-72.337067 1.408-108.270933 0.699733-8.302933-0.162133-11.0336 1.450667-12.074667 2.5344-1.1264 1.194667-2.525867 4.1216-2.372266 12.194134l0.341333 13.610666c0.6912 31.752533 0.580267 63.470933-0.341333 94.933334-0.1536 8.618667 1.245867 12.322133 2.798933 14.08 1.365333 1.536 4.565333 3.4304 13.550933 3.4304 68.974933-0.657067 138.0352-0.085333 209.220267-0.017067-11.511467-22.519467-26.001067-42.410667-40.763733-62.455467-17.143467-23.278933-34.756267-46.916267-46.779734-74.222933l-0.452266-0.896a6.058667 6.058667 0 0 0-4.010667-3.131733c-2.6368-0.768-5.853867-0.759467-10.845867-0.759467zM882.7904 694.954667c0 3.899733-0.7168 8.516267-1.2288 12.1856-0.571733 4.078933-0.981333 7.509333-0.878933 10.3936 0.110933 2.978133 0.733867 3.874133 0.853333 4.010666 0.008533 0.008533 0.1024 0.145067 0.5632 0.3072 0.529067 0.187733 1.595733 0.4096 3.456 0.349867h0.0512c7.483733-0.2048 15.394133 1.1264 22.493867 2.363733 7.441067 1.297067 14.148267 2.525867 20.488533 2.722134 6.237867 0.187733 11.332267-0.6656 15.5648-2.9696 4.096-2.235733 8.2432-6.314667 11.758933-14.242134l0.008534-0.017066c11.7248-26.24 28.3648-44.3136 49.0496-55.7312 20.539733-11.349333 44.4416-15.786667 70.229333-15.965867 25.617067-0.187733 49.4848 4.650667 69.632 16.213333 19.003733 10.897067 34.235733 27.502933 44.416 50.432l1.979733 4.6592v0.017067c2.338133 5.888 4.8384 9.002667 6.971734 10.717867 2.056533 1.646933 4.360533 2.474667 7.261866 2.756266 3.0976 0.315733 6.596267-0.008533 10.965334-0.580266 4.053333-0.529067 9.156267-1.3312 14.0544-1.4336h0.1792c4.224 0 5.725867-0.913067 6.144-1.2288 0.315733-0.256 0.8192-0.785067 1.1776-2.577067 0.401067-1.9712 0.4352-4.5056 0.324266-7.9616-0.093867-3.0464-0.3328-7.176533-0.0256-10.871467l0.136534-2.961066c0.0512-2.986667-0.110933-6.0928-0.2816-9.608534-0.221867-4.462933-0.443733-9.617067 0.1792-14.805333v-0.008533c1.339733-11.025067-0.384-16.1024-2.423467-18.338134-1.809067-1.9712-6.203733-4.155733-17.467733-2.688l-0.008534-0.008533c-6.903467 0.930133-15.488 1.194667-22.852266-2.048a23.133867 23.133867 0 0 1-10.103467-8.3968c-2.628267-3.9424-4.0192-8.669867-4.360533-13.952v-0.017067c-0.6656-10.624 2.798933-19.797333 10.052266-25.787733 6.6304-5.469867 15.3344-7.3984 24.157867-6.562133l1.7664 0.213333 0.136533 0.017067c13.9008 2.1248 18.005333-0.989867 19.566934-3.217067 1.066667-1.536 1.988267-3.985067 2.372266-7.918933 0.384-3.925333 0.187733-8.746667-0.4864-14.523734l-0.008533-0.042666a313.984 313.984 0 0 1-1.442133-48.674134v-0.017066c0.4864-10.205867-1.749333-13.789867-3.720534-15.4112-2.5344-2.0736-7.637333-3.541333-18.133333-3.370667h-0.0256c-82.2016 1.0496-165.358933 0-247.645867 0.6912h-0.0512c-12.9792 0.170667-25.096533-1.706667-33.8432-9.181867-9.088-7.765333-12.484267-19.6864-12.296533-34.525866v-0.0512c1.0496-57.429333 1.0496-115.2 0-172.6208v-0.017067c-0.1792-11.5712 1.757867-22.084267 8.840533-29.431467 7.150933-7.424 17.595733-9.591467 29.303467-9.403733h0.1536c37.4528 1.2544 73.984 0.8192 112.8192 0.725333-19.6096-43.4176-46.2336-62.976-72.064-61.9008-32.256 1.3824-65.834667 3.8912-98.944 2.466134-11.716267-0.503467-15.624533 1.664-17.3056 3.601066-2.0992 2.4064-3.6096 7.441067-3.6096 19.089067 1.399467 161.621333 1.0496 323.566933 2.0992 485.077333v0.059734z" fill="#000000" p-id="1907"></path></svg>