<?xml version="1.0" standalone="no"?><!DOCTYPE svg PUBLIC "-//W3C//DTD SVG 1.1//EN" "http://www.w3.org/Graphics/SVG/1.1/DTD/svg11.dtd"><svg t="1764314030884" class="icon" viewBox="0 0 1303 1024" version="1.1" xmlns="http://www.w3.org/2000/svg" p-id="6558" xmlns:xlink="http://www.w3.org/1999/xlink" width="61.078125" height="48"><path d="M529.454545625 302.54545437499996h-52.363636875c-26.1818184375 0-43.6363640625 17.454545625-43.636363125 43.6363640625s17.454545625 43.6363640625 43.636363125 43.636363125h52.363636875c26.1818184375 0 43.6363640625-17.454545625 43.636363125-43.636363125s-17.454545625-43.6363640625-43.636363125-43.6363640625zM634.1818184374999 302.54545437499996H904.7272728125c26.1818184375 0 43.6363640625 17.454545625 43.636363125 43.6363640625s-17.454545625 43.6363640625-43.636363125 43.636363125H634.1818184374999c-26.1818184375 0-43.6363640625-17.454545625-43.6363640625-43.636363125s26.1818184375-43.6363640625 43.6363640625-43.6363640625zM346.1818184375 459.63636406250004h52.3636359375c26.1818184375 0 43.6363640625 17.454545625 43.6363640625 43.636363125s-17.454545625 43.6363640625-43.6363640625 43.6363640625h-52.3636359375c-26.1818184375 0-43.6363640625-17.454545625-43.6363640625-43.6363640625s17.454545625-43.6363640625 43.6363640625-43.636363125zM503.2727271875 459.63636406250004H730.1818184374999c26.1818184375 0 43.6363640625 17.454545625 43.636363125 43.636363125s-17.454545625 43.6363640625-43.636363125 43.6363640625H503.2727271875c-26.1818184375 0-43.6363640625-17.454545625-43.636363125-43.6363640625s17.454545625-43.6363640625 43.636363125-43.636363125zM477.09090875000004 634.1818184374999h52.363636875c26.1818184375 0 43.6363640625 17.454545625 43.636363125 43.636363125s-17.454545625 43.6363640625-43.636363125 43.6363640625h-52.363636875c-26.1818184375 0-43.6363640625-17.454545625-43.636363125-43.6363640625s26.1818184375-43.6363640625 43.636363125-43.636363125zM634.1818184374999 634.1818184374999H904.7272728125c26.1818184375 0 43.6363640625 17.454545625 43.636363125 43.636363125s-17.454545625 43.6363640625-43.636363125 43.6363640625H634.1818184374999c-26.1818184375 0-43.6363640625-17.454545625-43.6363640625-43.6363640625s26.1818184375-43.6363640625 43.6363640625-43.636363125z" fill="#2db7f5" p-id="6559"></path><path d="M992 948.3636359375H293.81818156249994C171.63636406250004 948.3636359375 75.63636406249998 852.3636359375 75.63636406249998 730.1818184374999V293.81818156249994C75.63636406249998 171.63636406250004 171.63636406250004 75.63636406249998 293.81818156249994 75.63636406249998h698.1818184374999c122.1818184375 0 218.1818184375 96 218.1818184375 218.1818175v436.363636875c0 122.1818184375-96 218.1818184375-218.1818184375 218.1818175z m-698.1818184374999-785.4545446875c-69.8181815625 0-130.90909125 61.09090875-130.90909031249998 130.90909031249998v436.363636875c0 69.8181815625 61.09090875 130.90909125 130.90909031249998 130.90909031249998h698.1818184374999c69.8181815625 0 130.90909125-61.09090875 130.90909125-130.90909031249998V293.81818156249994c0-69.8181815625-61.09090875-130.90909125-130.90909125-130.90909031249998H293.81818156249994z" fill="#2db7f5" p-id="6560"></path></svg>