<?xml version="1.0" standalone="no"?><!DOCTYPE svg PUBLIC "-//W3C//DTD SVG 1.1//EN" "http://www.w3.org/Graphics/SVG/1.1/DTD/svg11.dtd"><svg t="1764234716191" class="icon" viewBox="0 0 1288 1024" version="1.1" xmlns="http://www.w3.org/2000/svg" p-id="3840" xmlns:xlink="http://www.w3.org/1999/xlink" width="60.375" height="48"><path d="M595.234133 213.256533c146.602667 0 293.1968-1.792 440.149334 0.725334 89.2416 1.4336 153.045333 46.592 186.018133 129.749333 38.3488 97.4848 69.538133 196.411733 59.502933 304.298667-5.7344 59.136-33.698133 92.117333-92.117333 92.117333-11.4688 0-23.296 1.0752-34.7648-0.3584-28.322133-3.584-46.242133 3.2256-63.803733 30.8224-35.4816 55.9104-120.072533 53.76-165.947734-3.2256-18.2784-22.9376-36.9152-28.322133-63.803733-28.322133-141.934933 1.083733-284.228267 0.725333-426.154667 0.366933-20.795733 0-34.414933 2.8672-46.600533 24.0128-37.282133 63.7952-134.058667 62.72-172.765867-1.0752-10.3936-17.2032-20.4288-24.0128-39.7824-22.5792-22.9376 1.792-46.2336-1.0752-69.179733 0.7168-56.9856 4.6592-94.976-20.078933-99.6352-97.134933C0.256 540.859733 3.4816 437.632 5.2736 335.121067c1.0752-63.4368 61.6448-120.064 132.974933-121.1392 152.32-2.158933 304.657067-0.725333 456.9856-0.725334z m548.036267 90.325334c-34.056533-38.7072-75.630933-55.1936-133.700267-55.552-84.224-0.3584-168.814933 0-253.038933 0-196.420267 0-392.840533-0.3584-589.252267 0-70.971733 0-121.147733 37.2736-121.506133 91.392-1.0752 105.019733 0.3584 210.397867 0 315.4176 0 24.0128 11.1104 35.84 33.6896 40.1408 34.414933 6.8096 69.179733 2.1504 103.594667 3.584 12.177067 0.7168 13.610667-7.168 16.128-17.2032 14.336-54.4768 48.7424-84.224 98.2016-86.3744 45.5168-2.158933 87.458133 29.0304 103.586133 80.64 6.0928 19.3536 15.0528 23.6544 33.6896 23.296 144.443733-0.7168 288.887467-1.0752 432.9728 0.3584 23.304533 0.3584 31.189333-7.5264 36.565333-28.3136 12.544-47.6672 43.3664-73.838933 86.016-76.706134 53.410133-3.584 98.926933 19.003733 112.546134 66.670934 10.0352 35.4816 27.5968 41.9328 58.069333 37.632 8.96-1.0752 18.6368-0.3584 27.5968 0 27.5968 0.7168 47.3088-8.2432 49.8176-39.424 3.2256-39.7824-27.2384-18.9952-43.008-22.9376-11.4688-2.8672-25.088-2.1504-25.088-17.2032-0.3584-13.627733 10.752-21.504 23.6544-19.362134 45.5168 7.168 45.8752-19.712 45.1584-53.0432-0.3584-23.296-7.8848-29.7472-30.1056-28.672-41.5744 1.4336-83.157333 0.7168-124.731733 0-60.2112-0.7168-103.944533-44.450133-106.094934-104.661333-0.7168-22.9376 0.3584-46.2336-1.0752-69.179733-1.4336-28.672 7.8848-43.008 39.432534-41.216 40.4992 2.1504 80.9984 0.7168 126.882133 0.7168z m-135.492267 465.595733c35.848533 0.7168 65.595733-28.3136 65.954134-64.878933 0.3584-37.2736-29.0304-67.3792-66.670934-68.4544-41.5744-1.0752-68.8128 23.296-69.888 63.0784-0.7168 36.9152 31.8976 69.179733 70.6048 70.254933zM366.557867 707.157333c0-39.7824-28.3136-71.3216-64.1536-70.9632-34.7648 0.3584-66.670933 31.5392-67.387734 65.9456-0.7168 37.282133 29.397333 66.670933 68.104534 67.029334 37.632 0 63.4368-25.088 63.4368-62.011734z m858.069333-230.101333c-15.7696-51.968-31.5392-99.643733-52.6848-145.527467-14.6944 3.2256-21.8624 14.336-29.3888 24.021334-27.963733 34.4064-24.021333 76.6976-11.835733 112.5376 7.5264 22.229333 43.374933 5.376 65.954133 8.96 7.5264 1.083733 15.7696 0 27.9552 0z m-208.238933-93.550933c0 53.76 12.9024 78.848 44.8 90.325333 16.128 5.7344 25.088 5.0176 25.088-16.853333 0-34.048-6.8096-69.1712 11.8272-101.0688 3.584-5.742933 1.0752-11.477333-6.4512-11.835734-22.9376-1.4336-47.3088-7.8848-68.096-1.792-16.494933 5.0176-3.2256 29.038933-7.168 41.216z" fill="#000000" p-id="3841"></path><path d="M514.2272 308.957867h346.24c47.675733 0 51.976533 4.3008 51.976533 50.542933v117.563733c0 45.5168-6.0928 52.3264-50.901333 52.6848-101.435733 0.3584-203.221333 0.3584-304.657067 0.3584-126.890667 0-253.764267-0.3584-380.6464-1.0752-52.6848-0.3584-60.5696-8.2432-60.5696-59.136 0-39.074133 1.4336-78.506667-0.366933-117.563733-1.4336-31.547733 11.477333-43.008 42.658133-43.008 118.997333 1.066667 237.636267 0.349867 356.625067 0.349867-0.349867-0.3584-0.349867-0.7168-0.349867-0.7168z m86.382933 181.009066h31.1808c50.901333 0 50.901333 0 50.542934-51.968-0.3584-28.680533 9.6768-67.029333-5.0176-83.157333-17.2032-19.3536-56.635733-6.0928-86.016-6.4512-66.670933-0.3584-66.670933 0-66.670934 67.0208-0.3584 74.914133-0.3584 74.914133 75.9808 74.555733z m194.269867-0.3584c16.128 0 32.6144-1.4336 48.384 0.3584 22.2208 2.5088 31.1808-5.0176 29.3888-28.322133-1.792-28.672-2.5088-57.7024 0-86.7328 2.1504-25.088-8.96-29.0304-30.1056-27.5968-19.3536 1.4336-39.0656 0.3584-58.7776 0.3584-65.237333 0-65.237333 0-65.237333 64.8704 0 76.706133 0 76.706133 76.347733 77.056zM227.131733 348.032h-13.6192c-63.0784 0-63.0784 0-63.0784 62.3616 0 79.573333 0 79.573333 85.2992 79.573333 67.029333 0 67.029333 0 67.029334-64.878933 0-76.6976 0-76.6976-75.630934-77.056z m182.442667 142.293333c76.3392-0.3584 76.3392-0.3584 76.3392-66.670933 0-75.6224 0-75.6224-78.848-74.5472-69.888 0.7168-69.888 0.7168-69.888 69.888 0 71.68 0 71.68 72.3968 71.330133z" fill="#000000" p-id="3842"></path></svg>