<?xml version="1.0" standalone="no"?><!DOCTYPE svg PUBLIC "-//W3C//DTD SVG 1.1//EN" "http://www.w3.org/Graphics/SVG/1.1/DTD/svg11.dtd"><svg class="icon" width="48px" height="48.00px" viewBox="0 0 1024 1024" version="1.1" xmlns="http://www.w3.org/2000/svg"><path d="M512 960c-60.473 0-119.145-11.848-174.387-35.213-53.35-22.564-101.259-54.865-142.397-96.003-41.138-41.139-73.438-89.048-96.003-142.397C75.848 631.145 64 572.473 64 512s11.848-119.145 35.213-174.387c22.564-53.35 54.865-101.259 96.003-142.397 41.139-41.138 89.048-73.438 142.397-96.003C392.855 75.848 451.527 64 512 64s119.145 11.848 174.387 35.213c53.35 22.564 101.259 54.865 142.397 96.003 41.138 41.139 73.438 89.048 96.003 142.397C948.152 392.855 960 451.527 960 512s-11.848 119.145-35.213 174.387c-22.564 53.35-54.865 101.259-96.003 142.397-41.139 41.138-89.048 73.438-142.397 96.003C631.145 948.152 572.473 960 512 960z m0-864C282.617 96 96 282.617 96 512s186.617 416 416 416 416-186.617 416-416S741.383 96 512 96z" fill="#555F82" /><path d="M515.073 769.799c51.429-44.864 128.273-45.064 179.923-0.594C720.821 732.696 736 688.122 736 640H288c0 49.601 16.133 95.427 43.422 132.543 51.62-47.785 130.968-48.701 183.651-2.744z" fill="#545C7F" /><path d="M515.073 769.799c-52.682-45.957-132.03-45.042-183.651 2.744C372.195 828 437.889 864 512 864c75.59 0 142.43-37.445 182.996-94.795-51.651-44.47-128.495-44.269-179.923 0.594z" fill="#FF4646" /><path d="M439.617 443.461c-1.13-4.197-2.689-8.248-4.576-12.106-1.893-3.86-4.194-7.447-6.682-10.859-2.514-3.398-5.339-6.479-8.276-9.417-2.973-2.893-6.12-5.555-9.387-8.025-6.566-4.879-13.617-8.951-20.949-12.247a133.539 133.539 0 0 0-22.689-7.749 145.571 145.571 0 0 0-18.433-3.181L348.8 376c0.636-15.333 2.017-30.667 3.04-46 0.489-7.667 0.805-15.333 0.831-23 0.032-7.667-0.216-15.333-0.671-23a578.751 578.751 0 0 0-1.413-18.318c0.776-0.071 1.552-0.136 2.327-0.211a1421.26 1421.26 0 0 0 21.79-2.157c7.263-0.797 14.527-1.624 21.79-2.568a609.162 609.162 0 0 0 21.79-3.146 1.62 1.62 0 0 0 0-3.2 609.162 609.162 0 0 0-21.79-3.146c-7.263-0.944-14.527-1.77-21.79-2.568-7.263-0.77-14.527-1.502-21.79-2.157-1.5-0.146-3.001-0.277-4.501-0.408-0.35-2.707-0.714-5.414-1.106-8.121-1.137-7.667-2.428-15.333-3.994-23-0.797-3.833-1.624-7.667-2.568-11.5-0.932-3.833-1.932-7.667-3.146-11.5a1.679 1.679 0 0 0-3.2 0c-1.214 3.833-2.214 7.667-3.146 11.5-0.943 3.833-1.77 7.667-2.568 11.5-1.565 7.667-2.856 15.333-3.994 23-0.326 2.245-0.632 4.49-0.928 6.735-1.633 0.032-3.27 0.044-4.906 0.149-1.983 0.114-3.971 0.226-5.952 0.454l-2.979 0.308-2.973 0.407a122.412 122.412 0 0 0-23.576 5.685c-15.43 5.375-30.435 14.1-42.411 27.546-5.889 6.751-10.952 14.768-14.061 23.865-0.37 1.142-0.814 2.254-1.102 3.431l-0.905 3.509c-0.466 2.38-0.946 4.761-1.167 7.189-0.54 4.833-0.526 9.736 0.094 14.565 0.594 4.824 1.706 9.59 3.351 14.086 1.626 4.503 3.728 8.763 6.134 12.738 2.445 3.944 5.232 7.579 8.203 10.947 3.017 3.309 6.194 6.4 9.549 9.174 13.534 11.004 29.027 17.811 44.745 21.793 7.872 2.002 15.848 3.25 23.818 3.927 1.632 0.121 3.263 0.22 4.893 0.314L325.36 422l1.273 23L328 468c1.169 18.274 2.322 36.548 3.595 54.821l-4.434 0.165-43.581 1.624L240 526.4c-0.822 0.036-1.5 0.697-1.534 1.534A1.602 1.602 0 0 0 240 529.6l43.581 1.79 43.581 1.624c1.717 0.13 3.445 0.23 5.182 0.306a2720.39 2720.39 0 0 0 2.057 26.68 1.605 1.605 0 0 0 3.2 0c0.73-8.844 1.404-17.689 2.046-26.533 25.667-0.061 52.665-6.407 74.476-23.185l1.182-0.916 1.145-0.972c0.76-0.654 1.532-1.292 2.28-1.963 1.465-1.384 2.959-2.739 4.336-4.239 1.433-1.436 2.729-3.026 4.065-4.577 1.248-1.636 2.543-3.238 3.671-4.989 1.199-1.692 2.226-3.523 3.282-5.332 0.966-1.87 1.946-3.738 2.743-5.713 1.637-3.914 2.978-8.023 3.727-12.284 0.766-4.249 1.15-8.596 0.972-12.943a63.283 63.283 0 0 0-1.909-12.893z m-135.934-70.108c-12.14-4.071-23.33-10.396-31.802-18.444-2.138-1.983-4.041-4.103-5.806-6.259-1.717-2.183-3.177-4.46-4.493-6.731-1.278-2.288-2.25-4.637-3.076-6.97-0.828-2.34-1.248-4.72-1.577-7.09-0.335-2.374-0.275-4.788-0.085-7.171 0.061-1.198 0.316-2.379 0.491-3.573 0.307-1.176 0.528-2.371 0.922-3.548a37.626 37.626 0 0 1 2.925-7.023c1.244-2.305 2.638-4.615 4.382-6.791 1.692-2.204 3.539-4.38 5.66-6.394 1.001-1.051 2.166-1.984 3.249-2.988 1.172-0.929 2.291-1.912 3.523-2.803 2.372-1.875 4.974-3.539 7.611-5.176 2.696-1.559 5.447-3.079 8.329-4.426 8.44-4.045 17.63-6.958 27.172-8.879A583.995 583.995 0 0 0 319.999 284c-0.455 7.667-0.703 15.333-0.671 23 0.026 7.667 0.342 15.333 0.831 23 1.023 15.333 2.404 30.667 3.04 46l0.087 1.94c-0.239-0.031-0.48-0.056-0.719-0.087-6.465-0.945-12.795-2.489-18.884-4.5z m118.466 92.973c-0.312 2.932-1.077 5.826-2.058 8.675-0.466 1.435-1.105 2.821-1.708 4.226-0.705 1.365-1.354 2.763-2.186 4.086-0.75 1.363-1.679 2.639-2.544 3.955-0.97 1.254-1.88 2.555-2.95 3.755-1.001 1.249-2.142 2.399-3.241 3.587-0.569 0.578-1.168 1.131-1.75 1.701l-0.879 0.85-0.926 0.808c-2.412 2.22-5.081 4.203-7.794 6.136-1.398 0.914-2.763 1.882-4.22 2.724-0.722 0.43-1.431 0.883-2.164 1.297l-2.219 1.22c-5.935 3.243-12.316 5.791-18.872 7.855-6.564 2.061-13.361 3.507-20.255 4.403-1.724 0.225-3.451 0.442-5.188 0.572l-2.605 0.228-0.155 0.008c1.262-18.137 2.407-36.274 3.567-54.411l1.367-23 1.273-23 0.823-16.787c4.817 0.315 9.611 0.908 14.342 1.796a109.669 109.669 0 0 1 18.802 5.382c6.045 2.358 11.799 5.329 17.083 8.851a77.15 77.15 0 0 1 7.471 5.757c2.298 2.091 4.518 4.261 6.445 6.618 1.932 2.344 3.734 4.782 5.202 7.368 1.463 2.585 2.693 5.268 3.639 8.036a43.56 43.56 0 0 1 1.813 8.532c0.306 2.907 0.216 5.849-0.113 8.772zM793.523 456.355a63.07 63.07 0 0 0-1.906-12.894c-1.13-4.197-2.689-8.248-4.576-12.106-1.893-3.86-4.194-7.447-6.682-10.859-2.514-3.398-5.339-6.479-8.276-9.417-2.973-2.893-6.12-5.555-9.387-8.025-6.566-4.879-13.617-8.951-20.949-12.247a133.51 133.51 0 0 0-22.689-7.749 145.571 145.571 0 0 0-18.433-3.181L700.8 376c0.636-15.333 2.017-30.667 3.04-46 0.489-7.667 0.805-15.333 0.831-23 0.032-7.667-0.216-15.333-0.671-23a578.751 578.751 0 0 0-1.413-18.318c0.776-0.071 1.552-0.136 2.327-0.211a1421.26 1421.26 0 0 0 21.79-2.157c7.263-0.797 14.527-1.624 21.79-2.568a609.162 609.162 0 0 0 21.79-3.146 1.62 1.62 0 0 0 0-3.2 609.162 609.162 0 0 0-21.79-3.146c-7.263-0.944-14.527-1.77-21.79-2.568-7.263-0.77-14.527-1.502-21.79-2.157-1.5-0.146-3.001-0.277-4.501-0.408-0.35-2.707-0.714-5.414-1.106-8.121-1.137-7.667-2.428-15.333-3.994-23-0.797-3.833-1.624-7.667-2.568-11.5-0.932-3.833-1.932-7.667-3.146-11.5a1.679 1.679 0 0 0-3.2 0c-1.214 3.833-2.214 7.667-3.146 11.5-0.943 3.833-1.77 7.667-2.568 11.5-1.565 7.667-2.856 15.333-3.994 23-0.326 2.245-0.632 4.49-0.928 6.735-1.633 0.032-3.27 0.044-4.906 0.149-1.983 0.114-3.971 0.226-5.952 0.454l-2.979 0.308-2.973 0.407a122.43 122.43 0 0 0-23.576 5.685c-15.43 5.375-30.435 14.1-42.411 27.546-5.889 6.751-10.952 14.768-14.061 23.865-0.37 1.142-0.814 2.254-1.102 3.431l-0.905 3.509c-0.466 2.38-0.946 4.761-1.167 7.189-0.54 4.833-0.526 9.736 0.094 14.565 0.594 4.824 1.706 9.59 3.351 14.086 1.626 4.503 3.728 8.763 6.134 12.738 2.445 3.944 5.232 7.579 8.203 10.947 3.017 3.309 6.194 6.4 9.549 9.174 13.534 11.004 29.027 17.811 44.745 21.793 7.872 2.002 15.848 3.25 23.818 3.927 1.632 0.121 3.263 0.22 4.893 0.314L677.36 422l1.273 23L680 468c1.169 18.274 2.322 36.548 3.595 54.821l-4.434 0.165-43.581 1.624L592 526.4c-0.822 0.036-1.5 0.697-1.534 1.534A1.602 1.602 0 0 0 592 529.6l43.581 1.79 43.581 1.624c1.716 0.13 3.445 0.23 5.182 0.306a2720.39 2720.39 0 0 0 2.057 26.68 1.605 1.605 0 0 0 3.2 0c0.73-8.844 1.404-17.689 2.046-26.533 25.667-0.061 52.665-6.407 74.476-23.185l1.182-0.916 1.145-0.972c0.76-0.654 1.532-1.292 2.28-1.963 1.465-1.384 2.959-2.739 4.336-4.239 1.433-1.436 2.729-3.026 4.065-4.577 1.248-1.636 2.543-3.238 3.671-4.989 1.199-1.692 2.226-3.523 3.282-5.332 0.966-1.87 1.946-3.738 2.743-5.713 1.637-3.914 2.978-8.023 3.727-12.284 0.763-4.248 1.147-8.595 0.969-12.942z m-137.84-83.002c-12.14-4.071-23.33-10.396-31.802-18.444-2.138-1.983-4.041-4.103-5.806-6.259-1.717-2.183-3.177-4.46-4.493-6.731-1.278-2.288-2.25-4.637-3.076-6.97-0.828-2.34-1.248-4.72-1.577-7.09-0.334-2.374-0.275-4.788-0.085-7.171 0.061-1.198 0.316-2.379 0.491-3.573 0.307-1.176 0.528-2.371 0.922-3.548a37.626 37.626 0 0 1 2.925-7.023c1.244-2.305 2.638-4.615 4.382-6.791 1.692-2.204 3.538-4.38 5.66-6.394 1.002-1.051 2.166-1.984 3.249-2.988 1.172-0.929 2.291-1.912 3.523-2.803 2.372-1.875 4.974-3.539 7.611-5.176 2.696-1.559 5.447-3.079 8.329-4.426 8.44-4.045 17.63-6.958 27.172-8.879A583.995 583.995 0 0 0 671.999 284c-0.455 7.667-0.703 15.333-0.671 23 0.026 7.667 0.342 15.333 0.831 23 1.023 15.333 2.404 30.667 3.04 46l0.087 1.94c-0.239-0.03-0.48-0.056-0.719-0.087-6.465-0.945-12.795-2.489-18.884-4.5z m118.466 92.973c-0.312 2.932-1.077 5.826-2.058 8.675-0.466 1.435-1.105 2.821-1.708 4.226-0.705 1.365-1.354 2.763-2.186 4.086-0.75 1.363-1.679 2.639-2.544 3.955-0.97 1.254-1.88 2.555-2.95 3.755-1.001 1.249-2.142 2.399-3.241 3.587-0.569 0.578-1.168 1.131-1.75 1.701l-0.879 0.85-0.927 0.808c-2.412 2.22-5.08 4.203-7.794 6.136-1.398 0.914-2.763 1.882-4.22 2.724-0.722 0.43-1.431 0.883-2.165 1.297l-2.219 1.22c-5.935 3.243-12.316 5.791-18.872 7.855-6.564 2.061-13.361 3.507-20.255 4.403-1.724 0.225-3.451 0.442-5.188 0.572l-2.605 0.228-0.155 0.008c1.262-18.137 2.407-36.274 3.567-54.411l1.367-23 1.273-23 0.823-16.787c4.817 0.315 9.611 0.908 14.342 1.796a109.669 109.669 0 0 1 18.802 5.382c6.045 2.358 11.799 5.329 17.083 8.851a77.272 77.272 0 0 1 7.471 5.757c2.297 2.091 4.518 4.261 6.445 6.618 1.932 2.344 3.734 4.782 5.202 7.368 1.463 2.585 2.693 5.268 3.639 8.036a43.56 43.56 0 0 1 1.813 8.532c0.308 2.907 0.218 5.849-0.111 8.772z" fill="#555F82" /></svg>