<?xml version="1.0" standalone="no"?><!DOCTYPE svg PUBLIC "-//W3C//DTD SVG 1.1//EN" "http://www.w3.org/Graphics/SVG/1.1/DTD/svg11.dtd"><svg t="1764743159045" class="icon" viewBox="0 0 1024 1024" version="1.1" xmlns="http://www.w3.org/2000/svg" p-id="9283" width="48" height="48" xmlns:xlink="http://www.w3.org/1999/xlink"><path d="M960 134.4C960 64 902.4 0 832 0L192 0C121.6 0 64 64 64 134.4l0 748.8C64 960 121.6 1024 192 1024l640 0c70.4 0 128-64 128-134.4L960 134.4zM896 889.6c0 38.4-25.6 70.4-64 70.4L192 960c-38.4 0-64-32-64-70.4L128 134.4c0-38.4 25.6-70.4 64-70.4l640 0c38.4 0 64 32 64 70.4L896 889.6z" p-id="9284"></path><path d="M192 134.4l640 0 0 70.4-640 0 0-70.4Z" p-id="9285"></path><path d="M192 512l640 0 0 70.4-640 0 0-70.4Z" p-id="9286"></path><path d="M192 614.4l640 0 0 70.4-640 0 0-70.4Z" p-id="9287"></path><path d="M192 716.8l640 0 0 70.4-640 0 0-70.4Z" p-id="9288"></path><path d="M192 819.2l640 0 0 70.4-640 0 0-70.4Z" p-id="9289"></path><path d="M448 275.2l384 0 0 70.4-384 0 0-70.4Z" p-id="9290"></path><path d="M448 377.6l384 0 0 70.4-384 0 0-70.4Z" p-id="9291"></path><path d="M192 275.2l192 0 0 204.8-192 0 0-204.8Z" p-id="9292"></path></svg>