<?xml version="1.0" standalone="no"?><!DOCTYPE svg PUBLIC "-//W3C//DTD SVG 1.1//EN" "http://www.w3.org/Graphics/SVG/1.1/DTD/svg11.dtd"><svg class="icon" width="48px" height="48.00px" viewBox="0 0 1024 1024" version="1.1" xmlns="http://www.w3.org/2000/svg"><path d="M512 960c-60.473 0-119.145-11.847-174.387-35.213-53.35-22.564-101.259-54.865-142.397-96.003-41.139-41.138-73.439-89.047-96.003-142.397C75.847 631.145 64 572.473 64 512s11.847-119.145 35.213-174.387c22.564-53.35 54.865-101.259 96.003-142.397 41.138-41.139 89.047-73.439 142.397-96.003C392.855 75.847 451.527 64 512 64s119.145 11.847 174.387 35.213c53.35 22.564 101.259 54.865 142.397 96.003 41.139 41.138 73.439 89.047 96.003 142.397C948.153 392.855 960 451.527 960 512s-11.847 119.145-35.213 174.387c-22.564 53.35-54.865 101.259-96.003 142.397-41.138 41.139-89.047 73.439-142.397 96.003C631.145 948.153 572.473 960 512 960z m0-864C282.617 96 96 282.617 96 512s186.617 416 416 416 416-186.617 416-416S741.383 96 512 96z" fill="#555F82" /><path d="M515.073 769.799c51.429-44.863 128.273-45.064 179.923-0.594C720.821 732.696 736 688.122 736 640H288c0 49.601 16.133 95.427 43.422 132.543 51.62-47.785 130.968-48.701 183.651-2.744z" fill="#555F82" /><path d="M515.073 769.799c-52.682-45.957-132.03-45.042-183.651 2.744C372.195 828 437.889 864 512 864c75.59 0 142.43-37.445 182.996-94.795-51.651-44.47-128.495-44.269-179.923 0.594z" fill="#FF4646" /><path d="M448 416c-2.899-1.495-5.649-3.083-8.378-4.644-2.776-1.509-5.572-2.941-8.26-4.452l-8.248-4.17c-2.749-1.342-5.527-2.596-8.254-3.88-11.014-4.979-22.105-9.135-33.284-12.485-22.358-6.669-45.114-10.07-67.913-10.061-22.798 0.029-45.546 3.427-67.896 10.104-11.175 3.351-22.265 7.501-33.279 12.476-2.727 1.281-5.511 2.529-8.257 3.873l-8.253 4.162c-2.69 1.508-5.488 2.938-8.266 4.444-2.733 1.557-5.484 3.143-8.388 4.633 1.603-2.794 3.358-5.493 5.131-8.22 1.876-2.615 3.841-5.186 5.854-7.745 2.037-2.531 4.268-4.873 6.441-7.328a23.566 23.566 0 0 1 1.697-1.761l1.753-1.703 3.531-3.42c9.649-8.868 20.589-16.52 32.392-22.688 23.6-12.395 50.585-18.848 77.538-18.823 26.952 0.013 53.929 6.463 77.521 18.865 11.799 6.171 22.739 13.815 32.387 22.68l3.533 3.415c1.155 1.158 2.379 2.212 3.45 3.462 2.177 2.45 4.406 4.793 6.446 7.32a221.712 221.712 0 0 1 5.86 7.736c1.778 2.724 3.535 5.421 5.142 8.21zM848 416c-2.899-1.495-5.649-3.083-8.378-4.644-2.776-1.509-5.572-2.941-8.26-4.452l-8.248-4.17c-2.748-1.342-5.527-2.596-8.254-3.88-11.014-4.979-22.105-9.135-33.284-12.485-22.358-6.669-45.113-10.07-67.913-10.061-22.798 0.029-45.546 3.427-67.896 10.104-11.175 3.351-22.265 7.501-33.279 12.476-2.727 1.281-5.511 2.529-8.257 3.873l-8.253 4.162c-2.69 1.508-5.487 2.938-8.266 4.444-2.733 1.557-5.484 3.143-8.388 4.633 1.603-2.794 3.358-5.493 5.131-8.22a220.872 220.872 0 0 1 5.854-7.745c2.037-2.531 4.268-4.873 6.441-7.328a23.566 23.566 0 0 1 1.697-1.761l1.753-1.703 3.531-3.42c9.649-8.868 20.589-16.52 32.392-22.688 23.6-12.395 50.585-18.848 77.538-18.823 26.952 0.013 53.929 6.463 77.521 18.865 11.799 6.171 22.739 13.815 32.387 22.68l3.533 3.415c1.155 1.158 2.379 2.212 3.45 3.462 2.177 2.45 4.406 4.793 6.446 7.32a221.712 221.712 0 0 1 5.86 7.736c1.778 2.724 3.535 5.421 5.142 8.21z" fill="#555F82" /><path d="M368.823 254.628c7.952 1.858 15.653 4.134 23.293 6.512l5.703 1.828 5.655 1.909 5.58 2.033 5.531 2.115c1.841 0.71 3.75 1.305 5.703 1.828 1.952 0.525 3.94 0.989 5.861 1.565 1.917 0.582 3.752 1.302 5.432 2.281 1.684 0.971 3.222 2.186 4.651 3.582a43.329 43.329 0 0 1 7.586 10.024c2.155 3.965 4.034 8.389 5.006 14.324l-1.646 2.744c-5.695 1.936-10.482 2.36-14.994 2.324a43.345 43.345 0 0 1-12.414-1.976c-1.904-0.604-3.7-1.389-5.349-2.418-1.654-1.021-3.152-2.302-4.568-3.719-1.412-1.424-2.757-2.96-4.139-4.435-1.381-1.477-2.804-2.882-4.297-4.172l-4.469-3.885-4.42-3.967-4.345-4.091-4.297-4.172c-5.693-5.622-11.326-11.346-16.707-17.488l1.644-2.746zM656.823 257.372c-5.381 6.142-11.014 11.866-16.707 17.488l-4.296 4.172-4.345 4.091-4.42 3.967-4.469 3.885c-1.492 1.29-2.916 2.695-4.297 4.172-1.382 1.475-2.727 3.011-4.139 4.435-1.416 1.418-2.914 2.698-4.568 3.719-1.649 1.029-3.445 1.814-5.349 2.418a43.316 43.316 0 0 1-12.414 1.976c-4.512 0.035-9.3-0.389-14.995-2.324l-1.646-2.744c0.972-5.936 2.851-10.36 5.005-14.324a43.35 43.35 0 0 1 7.586-10.024c1.429-1.396 2.967-2.611 4.651-3.582 1.679-0.979 3.514-1.698 5.432-2.281 1.921-0.576 3.909-1.04 5.861-1.565 1.953-0.523 3.862-1.118 5.703-1.828l5.531-2.115 5.58-2.033 5.655-1.909 5.704-1.828c7.64-2.378 15.341-4.654 23.293-6.512l1.644 2.746z" fill="#555F82" /></svg>