<?xml version="1.0" standalone="no"?><!DOCTYPE svg PUBLIC "-//W3C//DTD SVG 1.1//EN" "http://www.w3.org/Graphics/SVG/1.1/DTD/svg11.dtd"><svg class="icon" width="48px" height="48.00px" viewBox="0 0 1024 1024" version="1.1" xmlns="http://www.w3.org/2000/svg"><path d="M512 960c-60.473 0-119.145-11.847-174.387-35.213-53.35-22.564-101.259-54.865-142.397-96.003-41.139-41.138-73.439-89.047-96.003-142.397C75.847 631.145 64 572.473 64 512s11.847-119.145 35.213-174.387c22.564-53.35 54.865-101.259 96.003-142.397 41.138-41.139 89.047-73.439 142.397-96.003C392.855 75.847 451.527 64 512 64s119.145 11.847 174.387 35.213c53.35 22.564 101.259 54.865 142.397 96.003 41.139 41.138 73.439 89.047 96.003 142.397C948.153 392.855 960 451.527 960 512s-11.847 119.145-35.213 174.387c-22.564 53.35-54.865 101.259-96.003 142.397-41.138 41.139-89.047 73.439-142.397 96.003C631.145 948.153 572.473 960 512 960z m0-864C282.617 96 96 282.617 96 512s186.617 416 416 416 416-186.617 416-416S741.383 96 512 96z" fill="#555F82" /><path d="M512 816c-97.047 0-176-78.953-176-176 0-8.836 7.164-16 16-16s16 7.164 16 16c0 79.402 64.598 144 144 144s144-64.598 144-144c0-8.836 7.164-16 16-16s16 7.164 16 16c0 97.047-78.953 176-176 176zM368.823 254.628c7.952 1.858 15.653 4.134 23.293 6.512l5.704 1.827 5.655 1.909 5.58 2.033 5.531 2.115c1.841 0.71 3.751 1.305 5.703 1.828 1.952 0.525 3.94 0.989 5.861 1.565 1.917 0.582 3.752 1.302 5.432 2.281 1.684 0.971 3.222 2.186 4.651 3.582a43.329 43.329 0 0 1 7.586 10.024c2.155 3.965 4.034 8.388 5.005 14.324l-1.646 2.744c-5.695 1.936-10.482 2.359-14.995 2.324a43.345 43.345 0 0 1-12.414-1.976c-1.904-0.604-3.7-1.389-5.349-2.418-1.654-1.021-3.152-2.302-4.568-3.719-1.412-1.424-2.757-2.96-4.139-4.435-1.381-1.477-2.804-2.882-4.297-4.172l-4.469-3.885-4.42-3.967-4.345-4.091-4.296-4.173c-5.693-5.622-11.326-11.346-16.707-17.488l1.644-2.744zM656.823 257.372c-5.382 6.142-11.014 11.866-16.707 17.488l-4.296 4.173-4.345 4.091-4.42 3.967-4.469 3.885c-1.492 1.29-2.916 2.695-4.297 4.172-1.382 1.475-2.727 3.011-4.139 4.435-1.416 1.418-2.914 2.698-4.568 3.719-1.649 1.029-3.445 1.814-5.349 2.418a43.316 43.316 0 0 1-12.414 1.976c-4.512 0.035-9.3-0.388-14.995-2.324l-1.646-2.744c0.972-5.936 2.851-10.359 5.005-14.324a43.35 43.35 0 0 1 7.586-10.024c1.429-1.396 2.967-2.611 4.651-3.582 1.679-0.979 3.514-1.698 5.432-2.281 1.921-0.576 3.909-1.04 5.861-1.565 1.953-0.523 3.862-1.118 5.703-1.828l5.531-2.115 5.58-2.033 5.655-1.909 5.704-1.827c7.64-2.378 15.341-4.654 23.293-6.512l1.644 2.744z" fill="#555F82" /><path d="M871.536 407.79a220.804 220.804 0 0 0-5.86-7.737c-2.04-2.527-4.269-4.87-6.446-7.32-1.071-1.25-2.295-2.304-3.45-3.462l-3.533-3.415c-9.649-8.865-20.588-16.509-32.387-22.68-23.592-12.402-50.569-18.852-77.521-18.865-26.953-0.025-53.938 6.428-77.538 18.823a152.774 152.774 0 0 0-27.025 18.018c-6.481 4.035-12.367 8.932-17.369 14.524-1.304 1.541-2.616 3.032-3.803 4.645-1.154 1.655-2.344 3.223-3.379 4.933a89.266 89.266 0 0 0-2.911 5.204c-0.834 1.834-1.65 3.64-2.313 5.541 1.965-0.598 3.777-1.29 5.57-1.954 1.808-0.647 3.613-1.243 5.323-1.904l5.19-1.767 5.083-1.628a219.56 219.56 0 0 1 19.589-5.15c12.772-2.702 25.155-4.047 37.583-4.074 12.43-0.01 24.82 1.338 37.601 4.032a217.08 217.08 0 0 1 19.594 5.16l5.081 1.634 5.186 1.775c1.708 0.663 3.511 1.262 5.317 1.912 1.79 0.668 3.601 1.363 5.561 1.965-0.668-1.896-1.486-3.7-2.323-5.53a89.757 89.757 0 0 0-2.917-5.196c-1.037-1.706-2.226-3.275-3.383-4.925-1.187-1.613-2.5-3.101-3.805-4.639-5.347-5.971-11.691-11.162-18.702-15.346a85.253 85.253 0 0 0-6.508-3.521 231.807 231.807 0 0 1 15.299-0.534c22.8-0.009 45.556 3.392 67.913 10.061 11.179 3.35 22.27 7.506 33.284 12.485 2.727 1.284 5.506 2.538 8.254 3.88l8.248 4.17c2.688 1.511 5.484 2.944 8.26 4.452 2.73 1.561 5.479 3.149 8.378 4.644-1.607-2.79-3.364-5.487-5.141-8.211zM410.775 405.255c-1.034-1.71-2.225-3.278-3.379-4.933-1.187-1.613-2.499-3.104-3.803-4.645-5.002-5.592-10.888-10.489-17.369-14.524a152.829 152.829 0 0 0-27.025-18.018c-23.6-12.395-50.585-18.847-77.538-18.823-26.952 0.012-53.929 6.463-77.521 18.865-11.799 6.171-22.739 13.815-32.387 22.68l-3.533 3.415c-1.155 1.158-2.379 2.212-3.45 3.462-2.177 2.45-4.406 4.793-6.446 7.32a220.804 220.804 0 0 0-5.86 7.737c-1.777 2.723-3.534 5.42-5.141 8.21 2.899-1.495 5.649-3.083 8.378-4.644 2.776-1.509 5.572-2.941 8.26-4.452l8.248-4.17c2.749-1.342 5.527-2.596 8.254-3.88 11.014-4.979 22.105-9.136 33.284-12.485 22.358-6.669 45.113-10.07 67.913-10.061a231.76 231.76 0 0 1 15.299 0.534 85.422 85.422 0 0 0-6.507 3.521c-7.011 4.184-13.355 9.375-18.702 15.346-1.305 1.538-2.618 3.027-3.805 4.639-1.157 1.65-2.346 3.219-3.383 4.925a89.168 89.168 0 0 0-2.917 5.196c-0.838 1.83-1.655 3.634-2.323 5.53 1.96-0.602 3.77-1.297 5.561-1.965 1.806-0.65 3.609-1.248 5.317-1.912l5.186-1.775 5.081-1.634a216.906 216.906 0 0 1 19.594-5.16c12.78-2.694 25.171-4.042 37.601-4.032 12.429 0.028 24.811 1.373 37.583 4.074a219.81 219.81 0 0 1 19.589 5.15l5.083 1.628 5.19 1.767c1.71 0.66 3.515 1.257 5.323 1.904 1.794 0.664 3.606 1.357 5.57 1.954-0.663-1.901-1.479-3.707-2.313-5.541a90.182 90.182 0 0 0-2.912-5.203z" fill="#555F82" /></svg>