<?xml version="1.0" standalone="no"?><!DOCTYPE svg PUBLIC "-//W3C//DTD SVG 1.1//EN" "http://www.w3.org/Graphics/SVG/1.1/DTD/svg11.dtd"><svg class="icon" width="48px" height="48.00px" viewBox="0 0 1024 1024" version="1.1" xmlns="http://www.w3.org/2000/svg"><path d="M512 960c-60.473 0-119.145-11.848-174.387-35.213-53.35-22.564-101.259-54.865-142.397-96.003-41.139-41.139-73.439-89.048-96.003-142.397C75.847 631.145 64 572.473 64 512s11.847-119.145 35.213-174.387c22.564-53.35 54.865-101.259 96.003-142.397 41.138-41.138 89.047-73.438 142.397-96.003C392.855 75.848 451.527 64 512 64s119.145 11.848 174.387 35.213c53.35 22.564 101.259 54.865 142.397 96.003 41.139 41.139 73.439 89.048 96.003 142.397C948.153 392.855 960 451.527 960 512s-11.847 119.145-35.213 174.387c-22.564 53.35-54.865 101.259-96.003 142.397-41.138 41.138-89.047 73.438-142.397 96.003C631.145 948.152 572.473 960 512 960z m0-864C282.617 96 96 282.617 96 512s186.617 416 416 416 416-186.617 416-416S741.383 96 512 96z" fill="#555F82" /><path d="M704 800a15.95 15.95 0 0 1-11.313-4.687L640 742.627l-52.687 52.687c-6.248 6.248-16.379 6.248-22.627 0L512 742.627l-52.687 52.687c-6.248 6.248-16.379 6.248-22.627 0L384 742.627l-52.687 52.687c-6.248 6.248-16.379 6.248-22.627 0l-64-64c-6.249-6.248-6.249-16.379 0-22.627 6.248-6.248 16.379-6.248 22.627 0L320 761.373l52.687-52.687c6.248-6.248 16.379-6.248 22.627 0L448 761.373l52.687-52.687c6.248-6.248 16.379-6.248 22.627 0L576 761.373l52.687-52.687c6.248-6.248 16.379-6.248 22.627 0L704 761.373l52.687-52.687c6.248-6.248 16.379-6.248 22.627 0 6.249 6.248 6.249 16.379 0 22.627l-64 64A15.949 15.949 0 0 1 704 800zM411.794 455.548c-1.643-1.69-3.331-3.272-5.029-4.827-3.407-3.086-6.923-5.903-10.487-8.605-7.151-5.346-14.586-9.996-22.229-14.136-3.825-2.061-7.731-3.926-11.743-5.528-4.015-1.595-8.131-2.946-12.317-4.123-8.387-2.319-16.909-4.307-25.149-6.985l-12.39-3.943-12.426-3.856-12.481-3.721-12.517-3.634c-16.742-4.716-33.463-9.483-50.419-13.673l-1.21 2.963c15.043 8.875 30.323 17.174 45.581 25.523l11.483 6.166 11.519 6.078 11.574 5.943 11.61 5.855c7.76 3.855 15.237 8.4 22.851 12.613 3.814 2.089 7.698 4.005 11.683 5.676 3.987 1.664 8.082 3.066 12.257 4.271 8.357 2.393 16.921 4.276 25.771 5.462 0.352 0.045 0.707 0.083 1.059 0.127-0.353 0.043-0.707 0.082-1.059 0.127-8.849 1.186-17.414 3.07-25.771 5.462-4.175 1.206-8.269 2.607-12.257 4.271-3.985 1.671-7.869 3.587-11.683 5.676-7.613 4.213-15.091 8.759-22.851 12.613l-11.61 5.855-11.574 5.943-11.519 6.078-11.483 6.165c-15.258 8.349-30.537 16.648-45.581 25.523l1.21 2.963c16.957-4.19 33.677-8.957 50.419-13.673l12.517-3.634 12.481-3.721 12.426-3.856 12.39-3.944c8.24-2.678 16.763-4.665 25.149-6.984 4.186-1.177 8.302-2.528 12.317-4.123 4.013-1.602 7.918-3.467 11.743-5.528 7.643-4.14 15.079-8.789 22.229-14.136 3.564-2.701 7.08-5.519 10.487-8.604 1.699-1.555 3.386-3.137 5.029-4.827a71.694 71.694 0 0 0 4.811-5.363l-0.933-2.285 0.933-2.285a72.626 72.626 0 0 0-4.811-5.359zM743.541 509.222l-11.519-6.078-11.574-5.943-11.61-5.855c-7.76-3.855-15.237-8.4-22.851-12.613-3.814-2.089-7.698-4.005-11.683-5.676-3.987-1.664-8.082-3.066-12.257-4.271-8.357-2.393-16.921-4.276-25.771-5.462-0.352-0.045-0.707-0.083-1.059-0.127 0.353-0.043 0.707-0.082 1.059-0.127 8.849-1.186 17.414-3.069 25.771-5.462 4.175-1.205 8.269-2.607 12.257-4.271 3.985-1.671 7.869-3.587 11.683-5.676 7.613-4.213 15.091-8.758 22.851-12.613l11.61-5.855 11.574-5.943 11.519-6.078 11.483-6.166c15.258-8.349 30.537-16.648 45.581-25.523l-1.21-2.963c-16.957 4.19-33.677 8.957-50.419 13.673l-12.517 3.634-12.481 3.721-12.426 3.856-12.39 3.943c-8.24 2.678-16.763 4.665-25.149 6.985-4.186 1.177-8.302 2.528-12.317 4.123-4.013 1.602-7.918 3.467-11.743 5.528-7.643 4.14-15.079 8.789-22.229 14.136-3.564 2.702-7.08 5.519-10.487 8.605-1.699 1.555-3.386 3.137-5.029 4.827a71.694 71.694 0 0 0-4.811 5.363l0.933 2.285-0.933 2.285a71.672 71.672 0 0 0 4.811 5.363c1.643 1.69 3.331 3.272 5.029 4.827 3.407 3.086 6.923 5.903 10.487 8.604 7.151 5.347 14.586 9.996 22.229 14.136 3.825 2.061 7.731 3.926 11.743 5.528 4.015 1.595 8.131 2.946 12.317 4.123 8.387 2.319 16.909 4.307 25.149 6.984l12.39 3.944 12.426 3.856 12.481 3.721 12.517 3.634c16.742 4.716 33.463 9.483 50.419 13.673l1.21-2.963c-15.043-8.875-30.323-17.174-45.581-25.523l-11.483-6.169z" fill="#555F82" /><path d="M369 254.751c8.227 3.383 16.15 7.146 23.998 11.002l5.854 2.932 5.795 3.006 5.704 3.12 5.645 3.194c1.878 1.069 3.84 2.033 5.854 2.933 2.013 0.901 4.07 1.746 6.045 2.693 1.971 0.953 3.842 2.031 5.524 3.345 1.688 1.307 3.198 2.836 4.576 4.53a50.839 50.839 0 0 1 7.074 11.658c0.946 2.234 1.814 4.567 2.5 7.125 0.335 1.289 0.652 2.602 0.896 4.005 0.261 1.382 0.441 2.865 0.535 4.457l-2 2.498c-1.573 0.258-3.06 0.408-4.465 0.457-1.423 0.07-2.772 0.049-4.104 0.005-2.647-0.108-5.113-0.443-7.5-0.875a50.826 50.826 0 0 1-12.926-4.342c-1.955-0.973-3.778-2.11-5.424-3.47-1.651-1.352-3.114-2.941-4.476-4.655-1.358-1.72-2.634-3.541-3.955-5.307-1.319-1.767-2.691-3.47-4.146-5.067l-4.355-4.806-4.296-4.88-4.205-4.994-4.146-5.068c-5.485-6.811-10.896-13.714-16.002-20.998l2-2.498zM657 257.249c-5.106 7.284-10.517 14.187-16.002 20.998l-4.146 5.068-4.205 4.994-4.296 4.88-4.355 4.806c-1.455 1.598-2.827 3.3-4.146 5.067-1.321 1.766-2.597 3.587-3.955 5.307-1.362 1.714-2.825 3.302-4.476 4.655-1.646 1.359-3.469 2.497-5.424 3.47a50.826 50.826 0 0 1-12.926 4.342c-2.388 0.432-4.853 0.767-7.5 0.875-1.331 0.044-2.681 0.065-4.104-0.005a35.175 35.175 0 0 1-4.465-0.457l-2-2.498c0.093-1.592 0.273-3.075 0.535-4.457 0.244-1.403 0.561-2.716 0.896-4.005 0.686-2.559 1.554-4.891 2.5-7.125a50.86 50.86 0 0 1 7.074-11.658c1.378-1.694 2.888-3.223 4.576-4.53 1.682-1.314 3.553-2.392 5.524-3.345 1.976-0.947 4.033-1.793 6.045-2.693 2.014-0.899 3.976-1.864 5.854-2.933l5.645-3.194 5.704-3.12 5.795-3.006 5.854-2.932c7.848-3.856 15.771-7.62 23.998-11.002l2 2.498z" fill="#555F82" /></svg>