<?xml version="1.0" standalone="no"?><!DOCTYPE svg PUBLIC "-//W3C//DTD SVG 1.1//EN" "http://www.w3.org/Graphics/SVG/1.1/DTD/svg11.dtd">
<svg t="1764819268591" class="icon" viewBox="0 0 1024 1024" version="1.1" xmlns="http://www.w3.org/2000/svg" p-id="5061" width="48" height="48" xmlns:xlink="http://www.w3.org/1999/xlink">
<path d="M451.84 294.4c29.536 48.32 44.576 86.112 78.816 105.792 15.2 0 60.896 0 72.672-2.464l20.32-24.32c42.368-47.584 89.92-66.272 149.536-37.92 39.808 24.064 57.376 58.048 46.752 90.56-6.88 21.024-20.64 34.816-43.328 51.2-14.176 11.68-22.208 22.72-26.432 33.088 8.96 25.12 16.896 45.824 23.904 62.112l43.904 95.36c8.192-6.4 16.192-13.056 24-19.968a33.408 33.408 0 0 1 45.28 1.216c12.16 12.16 11.552 31.264-1.28 42.72C785.536 781.248 652.992 832 512.064 832c-140.48 0-272.64-50.432-372.96-139.392a29.056 29.056 0 0 1-1.408-42.72 33.408 33.408 0 0 1 45.28-1.344c10.464 9.28 26.944 22.08 49.504 38.432 41.28-60.48 68.576-146.464 77.568-201.216-18.88 12.416-59.584 50.304-116.832 22.08-80.96-51.936-83.008-136.192-25.856-187.424 4.8-5.792 34.88-28.128 38.272-36.096 5.216-32.864 29.824-68.16 63.776-83.616 87.776-39.52 169.664 63.968 182.4 93.664z m60.832 377.248c-58.272 0-112.96 35.296-129.6 83.328 41.44 10.88 64.64 16.544 129.024 16.544 42.88 0 85.312-5.344 127.232-16.064-17.6-54.464-64.8-83.84-126.656-83.84zM295.776 259.168c-17.696 8.704-26.336 27.648-27.712 39.424-4.192 17.472-13.696 30.496-28.928 44.16l-28 24.48c-27.456 23.584-27.68 56.64 13.504 84.608 11.424 4.32 26.464-1.056 45.12-16.128 29.472-20.48 47.936-28.992 76.288-28.992a32 32 0 0 1 31.936 31.424c1.28 66.336-29.536 179.52-75.68 256.8l-14.528 24.32c11.328 5.632 22.848 10.816 34.624 15.584l0.096-0.384c25.792-75.36 105.6-126.944 190.176-126.944 88.512 0 164.224 49.088 187.424 127.968 14.848-5.92 36.288-16.384 64.32-31.424-1.472-3.136-20.128-43.968-55.936-122.528-15.104-36.256-26.24-66.4-21.632-83.36 6.912-24.128 22.176-48.288 50.784-71.68 12.576-9.152 19.424-15.808 21.248-19.68-1.792-3.424-6.624-8.384-15.168-14.336-27.936-12.48-47.456-4.352-72.416 23.68-16.32 19.776-25.888 31.104-28.704 33.984-13.632 18.272-112.8 18.272-137.856 8.16l-0.224 0.448c-32.96-15.776-53.44-39.36-80.256-84.544C379.2 284.704 336.352 246.4 295.776 259.2z" fill="#686C78" p-id="5062"></path>
</svg>