<?xml version="1.0" standalone="no"?><!DOCTYPE svg PUBLIC "-//W3C//DTD SVG 1.1//EN" "http://www.w3.org/Graphics/SVG/1.1/DTD/svg11.dtd"><svg class="icon" width="48px" height="48.00px" viewBox="0 0 1024 1024" version="1.1" xmlns="http://www.w3.org/2000/svg"><path d="M512 960c-60.473 0-119.145-11.847-174.387-35.213-53.35-22.564-101.259-54.865-142.397-96.003-41.138-41.138-73.438-89.047-96.003-142.397C75.848 631.145 64 572.473 64 512s11.848-119.145 35.213-174.387c22.564-53.35 54.865-101.259 96.003-142.397 41.139-41.139 89.048-73.439 142.397-96.003C392.855 75.847 451.527 64 512 64s119.145 11.847 174.387 35.213c53.35 22.564 101.259 54.865 142.397 96.003 41.138 41.138 73.438 89.047 96.003 142.397C948.152 392.855 960 451.527 960 512s-11.848 119.145-35.213 174.387c-22.564 53.35-54.865 101.259-96.003 142.397-41.139 41.139-89.048 73.439-142.397 96.003C631.145 948.153 572.473 960 512 960z m0-864C282.617 96 96 282.617 96 512s186.617 416 416 416 416-186.617 416-416S741.383 96 512 96z" fill="#555F82" /><path d="M515.073 769.799c51.429-44.863 128.273-45.064 179.923-0.594C720.821 732.696 736 688.122 736 640H288c0 49.601 16.133 95.427 43.422 132.543 51.62-47.785 130.968-48.701 183.651-2.744z" fill="#555F82" /><path d="M515.073 769.799c-52.682-45.957-132.03-45.042-183.651 2.744C372.195 828 437.889 864 512 864c75.59 0 142.43-37.445 182.996-94.795-51.651-44.47-128.495-44.269-179.923 0.594zM420.38 315.619c-35.283-35.283-91.563-36.759-128.61-4.441-37.047-32.318-93.327-30.841-128.61 4.441-35.228 35.228-36.756 91.389-4.592 128.439l-0.171 0.171 4.763 4.763 128.61 128.61 128.61-128.61 4.763-4.763-0.171-0.171c32.164-37.049 30.636-93.211-4.592-128.439zM860.84 315.619c-35.283-35.283-91.563-36.759-128.61-4.441-37.047-32.318-93.327-30.841-128.61 4.441-35.228 35.228-36.756 91.389-4.592 128.439l-0.171 0.171 4.763 4.763 128.61 128.61 128.61-128.61 4.763-4.763-0.171-0.171c32.163-37.049 30.636-93.211-4.592-128.439z" fill="#FF4646" /><path d="M352.823 222.628c7.952 1.858 15.653 4.134 23.293 6.512l5.704 1.828 5.655 1.909 5.58 2.033 5.531 2.115c1.841 0.71 3.75 1.305 5.703 1.828 1.952 0.525 3.94 0.989 5.861 1.565 1.917 0.582 3.752 1.302 5.432 2.281 1.684 0.971 3.222 2.186 4.651 3.582a43.329 43.329 0 0 1 7.586 10.024c2.155 3.965 4.034 8.389 5.005 14.324l-1.646 2.744c-5.695 1.936-10.482 2.36-14.995 2.324a43.345 43.345 0 0 1-12.414-1.976c-1.904-0.604-3.7-1.389-5.349-2.418-1.654-1.021-3.152-2.302-4.568-3.719-1.412-1.424-2.757-2.96-4.139-4.435-1.381-1.477-2.804-2.882-4.297-4.172l-4.469-3.885-4.42-3.967-4.345-4.091-4.296-4.172c-5.693-5.622-11.326-11.346-16.707-17.488l1.644-2.746zM672.823 225.372c-5.382 6.142-11.014 11.866-16.707 17.488l-4.297 4.172-4.345 4.091-4.42 3.967-4.469 3.885c-1.492 1.29-2.916 2.695-4.297 4.172-1.382 1.475-2.727 3.011-4.139 4.435-1.416 1.418-2.914 2.698-4.568 3.719-1.649 1.029-3.445 1.814-5.349 2.418a43.322 43.322 0 0 1-12.414 1.976c-4.512 0.035-9.3-0.389-14.994-2.324l-1.646-2.744c0.972-5.936 2.851-10.36 5.006-14.324a43.35 43.35 0 0 1 7.586-10.024c1.429-1.396 2.967-2.611 4.651-3.582 1.679-0.979 3.514-1.698 5.432-2.281 1.921-0.576 3.909-1.04 5.861-1.565 1.953-0.523 3.862-1.118 5.703-1.828l5.531-2.115 5.58-2.033 5.655-1.909 5.703-1.828c7.64-2.378 15.341-4.654 23.293-6.512l1.644 2.746z" fill="#555F82" /></svg>