<?xml version="1.0" standalone="no"?><!DOCTYPE svg PUBLIC "-//W3C//DTD SVG 1.1//EN" "http://www.w3.org/Graphics/SVG/1.1/DTD/svg11.dtd"><svg class="icon" width="48px" height="48.00px" viewBox="0 0 1024 1024" version="1.1" xmlns="http://www.w3.org/2000/svg"><path d="M512 960c-60.473 0-119.145-11.847-174.387-35.213-53.35-22.564-101.259-54.865-142.397-96.003-41.138-41.138-73.438-89.047-96.003-142.397C75.848 631.145 64 572.473 64 512s11.848-119.145 35.213-174.387c22.564-53.35 54.865-101.259 96.003-142.397 41.139-41.139 89.048-73.439 142.397-96.003C392.855 75.847 451.527 64 512 64s119.145 11.847 174.387 35.213c53.35 22.564 101.259 54.865 142.397 96.003 41.138 41.138 73.438 89.047 96.003 142.397C948.152 392.855 960 451.527 960 512s-11.848 119.145-35.213 174.387c-22.564 53.35-54.865 101.259-96.003 142.397-41.139 41.139-89.048 73.439-142.397 96.003C631.145 948.153 572.473 960 512 960z m0-864C282.617 96 96 282.617 96 512s186.617 416 416 416 416-186.617 416-416S741.383 96 512 96z" fill="#555F82" /><path d="M512 816c-97.047 0-176-78.953-176-176 0-8.836 7.163-16 16-16s16 7.164 16 16c0 79.402 64.599 144 144 144s144-64.598 144-144c0-8.836 7.163-16 16-16s16 7.164 16 16c0 97.047-78.953 176-176 176zM376.057 401.915c-3.13-3.972-6.42-7.703-9.78-11.33-6.754-7.203-13.925-13.779-21.402-19.898-3.744-3.051-7.605-5.926-11.624-8.565-4.023-2.633-8.192-5.045-12.465-7.302-8.567-4.482-17.334-8.666-25.686-13.471l-12.573-7.141-12.625-7.062-12.706-6.941-12.759-6.862c-17.089-9.034-34.146-18.114-51.55-26.675l-1.775 2.663c14.596 12.772 29.538 25.026 44.45 37.325l11.241 9.138 11.294 9.059 11.375 8.938 11.427 8.859c7.647 5.862 14.881 12.345 22.314 18.529a175.736 175.736 0 0 0 3.816 3.052C278.432 386.749 256 410.748 256 440c0 30.928 25.072 56 56 56s56-25.072 56-56a55.73 55.73 0 0 0-7.659-28.259 159.17 159.17 0 0 0 7.603 2.344c2.442 0.67 4.901 1.315 7.424 1.864a84.006 84.006 0 0 0 7.745 1.382l1.775-2.663a83.94 83.94 0 0 0-4.255-6.618c-1.477-2.117-3.018-4.139-4.576-6.135zM831.113 286.669c-17.404 8.561-34.462 17.641-51.55 26.675l-12.759 6.862-12.706 6.941-12.625 7.062-12.573 7.141c-8.353 4.804-17.119 8.988-25.686 13.471-4.273 2.257-8.443 4.669-12.465 7.302-4.019 2.639-7.88 5.514-11.624 8.565-7.477 6.118-14.648 12.695-21.402 19.898-3.36 3.627-6.65 7.358-9.78 11.33-1.558 1.997-3.099 4.018-4.576 6.136a83.94 83.94 0 0 0-4.255 6.618l1.775 2.663a84.006 84.006 0 0 0 7.745-1.382c2.523-0.548 4.982-1.194 7.424-1.864 2.575-0.72 5.104-1.51 7.603-2.344A55.718 55.718 0 0 0 656 440c0 30.928 25.072 56 56 56s56-25.072 56-56c0-29.252-22.432-53.251-51.03-55.768 1.283-1 2.558-2.014 3.816-3.052 7.433-6.184 14.667-12.667 22.314-18.529l11.427-8.859 11.375-8.938 11.294-9.059 11.241-9.138c14.912-12.299 29.854-24.553 44.45-37.325l-1.774-2.663z" fill="#555F82" /></svg>