<?xml version="1.0" standalone="no"?><!DOCTYPE svg PUBLIC "-//W3C//DTD SVG 1.1//EN" "http://www.w3.org/Graphics/SVG/1.1/DTD/svg11.dtd"><svg t="1764917031013" class="icon" viewBox="0 0 1024 1024" version="1.1" xmlns="http://www.w3.org/2000/svg" p-id="4830" xmlns:xlink="http://www.w3.org/1999/xlink" width="48" height="48"><path d="M634.19601 659.619521a207.95508 207.95508 0 0 1-111.956121-20.394446 73.641869 73.641869 0 0 1-27.477036-51.71144 11.34921 11.34921 0 0 0-11.605207-11.263878c-16.213158-0.170665-32.426315-0.170665-48.639473 0a10.837216 10.837216 0 0 0-11.775873 9.55723c-1.877313 35.668947 12.287867 70.228573 38.570249 94.377644 32.767645 25.599723 72.532548 40.618227 114.004098 43.007534 43.263531 4.94928 87.039057 3.157299 129.705262-5.546606a160.083599 160.083599 0 0 0 85.929736-46.250166c26.026385-32.084986 33.620969-75.263185 20.309113-114.345428a95.65763 95.65763 0 0 0-62.975318-55.97806c-65.53529-23.03975-136.446522-21.333102-203.261798-38.740914-11.69054-3.583961-25.85572-7.679917-30.975664-19.882451a43.775526 43.775526 0 0 1 14.506509-48.89547c20.991773-11.946537 44.970179-17.919806 69.119252-17.237147 32.767645-3.071967 65.791287 1.706648 96.425622 13.82385a73.556536 73.556536 0 0 1 35.156952 50.772784 12.458532 12.458532 0 0 0 11.69054 12.117202c16.042493 0.34133 32.170318 0 48.298144 0.085332a11.69054 11.69054 0 0 0 12.629196-8.533241 124.585317 124.585317 0 0 0-60.756675-107.860164 301.052739 301.052739 0 0 0-164.776882-25.258394c-41.215553 1.706648-80.553794 17.493144-111.444126 44.799515-28.927687 31.231662-37.54626 76.116509-22.186426 115.796079 11.861205 26.453047 34.644958 46.250166 62.292658 54.356744 65.449958 23.637077 137.043849 16.042493 203.091134 36.948934 12.799861 4.351953 27.818365 11.093213 31.743656 25.343725a50.687451 50.687451 0 0 1-13.82385 48.468808c-27.477036 17.066482-59.647354 24.917063-91.817672 22.442424z m297.895439-432.379316C804.519498 155.048987 676.947546 83.028434 549.20493 10.922548a85.844403 85.844403 0 0 0-83.796425 0L83.887305 226.386881A78.932478 78.932478 0 0 0 42.671751 295.07947v433.915299a79.529805 79.529805 0 0 0 42.836869 69.375249c36.436939 19.882451 71.935221 41.81288 109.225484 60.415345 43.519529 23.210415 95.401633 24.661066 140.115815 3.839959 33.620969-21.077105 53.162091-58.79403 50.943448-98.388268 0.255997-143.187782 0-286.460897 0.085333-429.563346a11.263878 11.263878 0 0 0-10.581219-13.055859 2127.336954 2127.336954 0 0 0-48.810138 0 10.751884 10.751884 0 0 0-11.605208 10.922548c-0.255997 142.249126 0 284.498251-0.170664 426.918042a48.127479 48.127479 0 0 1-31.231662 45.226177 78.505816 78.505816 0 0 1-63.487312-8.533241L118.617595 738.807996a12.117202 12.117202 0 0 1-6.826593-12.031869V297.298113a13.226523 13.226523 0 0 1 7.935914-13.311856c126.80396-71.337894 253.437254-142.846452 380.155882-214.355011a13.226523 13.226523 0 0 1 15.018504 0l380.155882 214.355011c5.290609 2.303975 8.533241 7.679917 8.021246 13.311856v429.478014a12.373199 12.373199 0 0 1-6.826593 12.202534c-124.841314 70.569902-249.682628 141.054472-374.609275 211.453709-5.973269 3.242632-13.055859 8.533241-20.053116 4.60795-32.767645-18.602465-65.023296-37.802257-97.705608-56.490054a10.581219 10.581219 0 0 0-11.775873-0.767992 267.09044 267.09044 0 0 1-45.140844 21.162437c-7.08259 2.815969-15.786496 3.669294-20.650443 10.23989a67.412603 67.412603 0 0 0 22.186427 15.871828l114.43076 66.132616c25.770387 16.213158 58.196703 17.066482 84.735082 2.389308l381.606533-215.208335a79.70047 79.70047 0 0 0 42.751536-69.375249V295.07947a78.847146 78.847146 0 0 0-39.850235-67.839265z" fill="#bfbfbf" p-id="4831"></path></svg>