<?xml version="1.0" standalone="no"?><!DOCTYPE svg PUBLIC "-//W3C//DTD SVG 1.1//EN" "http://www.w3.org/Graphics/SVG/1.1/DTD/svg11.dtd"><svg class="icon" width="48px" height="48.00px" viewBox="0 0 1024 1024" version="1.1" xmlns="http://www.w3.org/2000/svg"><path d="M512 960c-60.473 0-119.145-11.847-174.387-35.213-53.35-22.564-101.259-54.865-142.397-96.003-41.138-41.138-73.438-89.047-96.003-142.397C75.848 631.145 64 572.473 64 512s11.848-119.145 35.213-174.387c22.564-53.35 54.865-101.259 96.003-142.397 41.139-41.139 89.048-73.439 142.397-96.003C392.855 75.847 451.527 64 512 64s119.145 11.847 174.387 35.213c53.35 22.564 101.259 54.865 142.397 96.003 41.138 41.138 73.438 89.047 96.003 142.397C948.152 392.855 960 451.527 960 512s-11.848 119.145-35.213 174.387c-22.564 53.35-54.865 101.259-96.003 142.397-41.139 41.139-89.048 73.439-142.397 96.003C631.145 948.153 572.473 960 512 960z m0-864C282.617 96 96 282.617 96 512s186.617 416 416 416 416-186.617 416-416S741.383 96 512 96z" fill="#555F82" /><path d="M515.073 769.799c51.429-44.863 128.273-45.064 179.923-0.594C720.821 732.696 736 688.122 736 640H288c0 49.601 16.133 95.427 43.422 132.543 51.62-47.785 130.968-48.701 183.651-2.744z" fill="#555F82" /><path d="M515.073 769.799c-52.682-45.957-132.03-45.042-183.651 2.744C372.195 828 437.889 864 512 864c75.59 0 142.43-37.445 182.996-94.795-51.651-44.47-128.495-44.269-179.923 0.594z" fill="#FF4646" /><path d="M411.794 391.548c-1.643-1.69-3.331-3.272-5.03-4.827-3.407-3.086-6.923-5.903-10.487-8.605-7.151-5.346-14.586-9.996-22.229-14.136-3.825-2.061-7.731-3.926-11.743-5.528-4.016-1.595-8.131-2.946-12.317-4.123-8.387-2.319-16.909-4.307-25.149-6.985l-12.39-3.943-12.426-3.856-12.481-3.721-12.517-3.634c-16.742-4.716-33.463-9.483-50.419-13.673l-1.21 2.963c15.043 8.875 30.323 17.174 45.581 25.523l11.483 6.166 11.519 6.078 11.574 5.943 11.61 5.855c7.564 3.758 14.862 8.17 22.277 12.292-0.479-0.001-0.959-0.013-1.438-0.01-5.333 0.026-10.667 0.342-16 0.831-10.667 1.023-21.333 2.404-32 3.04l-16 1.033-16 1.127-16 1.273L224 392c-21.333 1.962-42.667 3.869-64 6.4v3.2c21.333 2.531 42.667 4.438 64 6.4l16 1.367 16 1.273 16 1.127 16 1.033c10.667 0.636 21.333 2.017 32 3.04 5.333 0.489 10.667 0.805 16 0.831 0.479 0.003 0.959-0.008 1.438-0.01-7.415 4.123-14.713 8.534-22.277 12.292l-11.61 5.855-11.574 5.943-11.519 6.078-11.483 6.166c-15.258 8.349-30.537 16.648-45.581 25.523l1.21 2.963c16.957-4.19 33.677-8.957 50.419-13.673l12.517-3.634 12.481-3.721 12.426-3.856 12.39-3.943c8.24-2.678 16.763-4.665 25.149-6.985 4.186-1.177 8.302-2.528 12.317-4.123 4.013-1.602 7.918-3.467 11.743-5.528 7.643-4.14 15.079-8.789 22.229-14.136 3.564-2.702 7.08-5.519 10.487-8.605 1.699-1.555 3.386-3.137 5.03-4.827a71.694 71.694 0 0 0 4.811-5.363l-0.608-1.488 0.003-0.001v-3.2l-0.003-0.001 0.608-1.488a71.792 71.792 0 0 0-4.809-5.361zM704 415.84c10.667-1.023 21.333-2.404 32-3.04l16-1.033 16-1.127 16-1.273L800 408c21.333-1.962 42.667-3.869 64-6.4v-3.2c-21.333-2.531-42.667-4.438-64-6.4l-16-1.367-16-1.273-16-1.127-16-1.033c-10.667-0.636-21.333-2.017-32-3.04-5.333-0.489-10.667-0.805-16-0.831-0.479-0.003-0.959 0.008-1.438 0.01 7.415-4.123 14.712-8.534 22.277-12.292l11.61-5.855 11.574-5.943 11.519-6.078 11.483-6.166c15.258-8.349 30.537-16.648 45.581-25.523l-1.209-2.963c-16.957 4.19-33.677 8.957-50.419 13.673l-12.517 3.634-12.481 3.721-12.426 3.856-12.39 3.943c-8.24 2.678-16.762 4.665-25.149 6.985-4.186 1.177-8.302 2.528-12.317 4.123-4.013 1.602-7.918 3.467-11.744 5.528-7.643 4.14-15.079 8.789-22.229 14.136-3.564 2.702-7.08 5.519-10.487 8.605-1.698 1.555-3.386 3.137-5.029 4.827a71.474 71.474 0 0 0-4.811 5.363l0.608 1.488-0.003 0.001v3.2l0.003 0.001-0.608 1.488a71.672 71.672 0 0 0 4.811 5.363c1.643 1.69 3.331 3.272 5.029 4.827 3.407 3.086 6.924 5.903 10.487 8.605 7.151 5.346 14.586 9.996 22.229 14.136 3.825 2.061 7.731 3.926 11.744 5.528 4.015 1.595 8.131 2.946 12.317 4.123 8.387 2.319 16.909 4.307 25.149 6.985l12.39 3.943 12.426 3.856 12.481 3.721 12.517 3.634c16.742 4.716 33.463 9.483 50.419 13.673l1.209-2.963c-15.043-8.875-30.323-17.174-45.581-25.523l-11.483-6.166-11.519-6.078-11.574-5.943-11.61-5.855c-7.564-3.758-14.862-8.17-22.277-12.292 0.479 0.001 0.959 0.013 1.438 0.01 5.333-0.03 10.667-0.346 16-0.835z" fill="#555F82" /><path d="M369 254.751c8.227 3.383 16.15 7.146 23.998 11.002l5.854 2.932 5.795 3.006 5.704 3.12 5.645 3.194c1.878 1.069 3.84 2.033 5.854 2.933 2.013 0.901 4.069 1.746 6.045 2.693 1.971 0.953 3.842 2.031 5.524 3.345 1.688 1.307 3.198 2.836 4.576 4.53a50.839 50.839 0 0 1 7.074 11.658c0.946 2.234 1.813 4.567 2.5 7.125 0.335 1.289 0.652 2.602 0.896 4.005 0.261 1.382 0.441 2.865 0.535 4.457l-2 2.498c-1.573 0.258-3.06 0.408-4.465 0.457-1.423 0.07-2.772 0.049-4.104 0.005-2.647-0.108-5.113-0.443-7.5-0.875a50.826 50.826 0 0 1-12.926-4.342c-1.955-0.973-3.778-2.11-5.424-3.47-1.651-1.352-3.114-2.941-4.476-4.655-1.358-1.72-2.634-3.541-3.955-5.307-1.319-1.767-2.691-3.47-4.146-5.067l-4.355-4.806-4.296-4.88-4.205-4.994-4.146-5.068c-5.485-6.811-10.896-13.714-16.002-20.998l2-2.498zM657 257.249c-5.106 7.284-10.517 14.187-16.002 20.998l-4.146 5.068-4.205 4.994-4.296 4.88-4.355 4.806c-1.455 1.598-2.827 3.3-4.146 5.067-1.321 1.766-2.597 3.587-3.955 5.307-1.363 1.714-2.825 3.302-4.476 4.655-1.646 1.359-3.469 2.497-5.424 3.47a50.826 50.826 0 0 1-12.926 4.342c-2.387 0.432-4.853 0.767-7.5 0.875-1.331 0.044-2.681 0.065-4.104-0.005a35.175 35.175 0 0 1-4.465-0.457l-2-2.498c0.094-1.592 0.273-3.075 0.535-4.457 0.244-1.403 0.561-2.716 0.896-4.005 0.687-2.559 1.554-4.891 2.5-7.125a50.86 50.86 0 0 1 7.074-11.658c1.378-1.694 2.888-3.223 4.576-4.53 1.682-1.314 3.553-2.392 5.524-3.345 1.976-0.947 4.033-1.793 6.045-2.693 2.014-0.899 3.976-1.864 5.854-2.933l5.645-3.194 5.704-3.12 5.795-3.006 5.854-2.932c7.848-3.856 15.771-7.62 23.998-11.002l2 2.498z" fill="#555F82" /></svg>