<?xml version="1.0" standalone="no"?><!DOCTYPE svg PUBLIC "-//W3C//DTD SVG 1.1//EN" "http://www.w3.org/Graphics/SVG/1.1/DTD/svg11.dtd"><svg class="icon" width="48px" height="48.00px" viewBox="0 0 1024 1024" version="1.1" xmlns="http://www.w3.org/2000/svg"><path d="M512 960c-60.473 0-119.145-11.847-174.387-35.213-53.35-22.564-101.259-54.865-142.397-96.003-41.139-41.138-73.439-89.047-96.003-142.397C75.847 631.145 64 572.473 64 512s11.847-119.145 35.213-174.387c22.564-53.35 54.865-101.259 96.003-142.397 41.138-41.139 89.047-73.439 142.397-96.003C392.855 75.847 451.527 64 512 64s119.145 11.847 174.387 35.213c53.35 22.564 101.259 54.865 142.397 96.003 41.139 41.138 73.439 89.047 96.003 142.397C948.153 392.855 960 451.527 960 512s-11.847 119.145-35.213 174.387c-22.564 53.35-54.865 101.259-96.003 142.397-41.138 41.139-89.047 73.439-142.397 96.003C631.145 948.153 572.473 960 512 960z m0-864C282.617 96 96 282.617 96 512s186.617 416 416 416 416-186.617 416-416S741.383 96 512 96z" fill="#555F82" /><path d="M515.072 769.799c51.429-44.863 128.273-45.064 179.923-0.594C720.821 732.696 736 688.122 736 640H288c0 49.601 16.133 95.427 43.422 132.543 51.62-47.785 130.968-48.701 183.65-2.744z" fill="#555F82" /><path d="M515.072 769.799c-52.682-45.957-132.03-45.042-183.651 2.744C372.195 828 437.889 864 512 864c75.59 0 142.43-37.445 182.996-94.795-51.651-44.47-128.495-44.269-179.924 0.594z" fill="#FF4646" /><path d="M280 392m-56 0a56 56 0 1 0 112 0 56 56 0 1 0-112 0Z" fill="#545D80" /><path d="M744 392m-56 0a56 56 0 1 0 112 0 56 56 0 1 0-112 0Z" fill="#545D80" /><path d="M256.314 254.431c7.157-1.116 14.217-1.754 21.255-2.276l5.268-0.341 5.25-0.248 5.221-0.106 5.202-0.012c1.733 0.001 3.492-0.129 5.268-0.34 1.775-0.21 3.564-0.489 5.328-0.641 1.763-0.148 3.493-0.129 5.164 0.177 1.673 0.301 3.291 0.879 4.867 1.666 3.148 1.596 6.19 3.715 9.08 6.601 2.884 2.913 5.663 6.352 8.096 11.519l-0.628 3.138c-4.233 3.834-8.121 5.939-11.904 7.519-3.777 1.553-7.401 2.339-10.92 2.601-1.757 0.12-3.473 0.032-5.133-0.334-1.661-0.36-3.265-1.008-4.836-1.823-1.57-0.818-3.114-1.764-4.672-2.641-1.558-0.878-3.132-1.675-4.732-2.34l-4.798-2.012-4.779-2.106-4.75-2.248-4.732-2.341c-6.296-3.188-12.568-6.493-18.745-10.276l0.63-3.136zM768.314 257.569c-6.177 3.783-12.449 7.087-18.745 10.276l-4.732 2.341-4.75 2.248-4.779 2.106-4.798 2.012c-1.6 0.666-3.174 1.462-4.732 2.34-1.558 0.876-3.102 1.822-4.672 2.641-1.57 0.815-3.174 1.463-4.835 1.823-1.66 0.366-3.376 0.454-5.133 0.334-3.519-0.262-7.143-1.049-10.92-2.601-3.783-1.58-7.67-3.685-11.904-7.519l-0.628-3.138c2.433-5.167 5.212-8.606 8.096-11.519 2.889-2.886 5.932-5.006 9.08-6.601 1.576-0.786 3.194-1.365 4.867-1.666 1.672-0.307 3.402-0.326 5.165-0.177 1.764 0.152 3.553 0.431 5.328 0.641 1.776 0.212 3.535 0.342 5.268 0.34l5.202 0.012 5.221 0.106 5.25 0.248 5.268 0.341c7.038 0.522 14.099 1.16 21.255 2.276l0.628 3.136z" fill="#555F82" /></svg>