<?xml version="1.0" standalone="no"?><!DOCTYPE svg PUBLIC "-//W3C//DTD SVG 1.1//EN" "http://www.w3.org/Graphics/SVG/1.1/DTD/svg11.dtd"><svg class="icon" width="48px" height="48.00px" viewBox="0 0 1024 1024" version="1.1" xmlns="http://www.w3.org/2000/svg"><path d="M512 960c-60.473 0-119.145-11.848-174.387-35.213-53.35-22.564-101.259-54.865-142.397-96.003-41.139-41.139-73.439-89.048-96.003-142.397C75.847 631.145 64 572.473 64 512s11.847-119.145 35.213-174.387c22.564-53.35 54.865-101.259 96.003-142.397 41.138-41.138 89.047-73.438 142.397-96.003C392.855 75.848 451.527 64 512 64s119.145 11.848 174.387 35.213c53.35 22.564 101.259 54.865 142.397 96.003 41.139 41.139 73.439 89.048 96.003 142.397C948.153 392.855 960 451.527 960 512s-11.847 119.145-35.213 174.387c-22.564 53.35-54.865 101.259-96.003 142.397-41.138 41.138-89.047 73.438-142.397 96.003C631.145 948.152 572.473 960 512 960z m0-864C282.617 96 96 282.617 96 512s186.617 416 416 416 416-186.617 416-416S741.383 96 512 96z" fill="#555F82" /><path d="M672 816c-8.836 0-16-7.163-16-16 0-79.401-64.598-144-144-144s-144 64.599-144 144c0 8.837-7.164 16-16 16s-16-7.163-16-16c0-97.047 78.953-176 176-176s176 78.953 176 176c0 8.837-7.164 16-16 16z" fill="#555F82" /><path d="M328 392m-56 0a56 56 0 1 0 112 0 56 56 0 1 0-112 0Z" fill="#545D80" /><path d="M696 392m-56 0a56 56 0 1 0 112 0 56 56 0 1 0-112 0Z" fill="#545D80" /><path d="M232.822 247.178c15.805 12.21 33.246 21.486 51.541 26.932 2.267 0.722 4.592 1.273 6.867 1.917 2.292 0.6 4.628 1.039 6.921 1.566 2.309 0.477 4.644 0.833 6.948 1.257 2.319 0.366 4.659 0.604 6.97 0.916 2.322 0.26 4.655 0.415 6.967 0.632 2.325 0.136 4.653 0.178 6.963 0.295l6.94-0.004 6.907-0.343c9.196-0.641 18.176-2.928 26.765-5.68l3.215-1.047c1.071-0.337 2.151-0.63 3.21-0.999 2.115-0.746 4.263-1.342 6.385-2.024 2.108-0.726 4.268-1.291 6.401-1.952 2.115-0.706 4.298-1.254 6.445-1.924 8.638-2.561 17.309-5.485 26.259-8.774 2.21-0.863 4.501-1.66 6.78-2.529 1.134-0.443 2.255-0.915 3.42-1.346 1.158-0.439 2.35-0.85 3.501-1.328a225.28 225.28 0 0 1 7.141-2.773 102.28 102.28 0 0 1 7.501-2.792l2.263 2.263a79.07 79.07 0 0 1-3.383 7.557c-1.297 2.409-2.749 4.712-4.227 7.04-1.54 2.254-3.207 4.414-4.909 6.577-0.827 1.115-1.785 2.067-2.693 3.097-0.922 1.011-1.84 2.043-2.795 3.034-7.685 7.857-16.751 14.434-26.612 19.537-2.457 1.297-5.015 2.374-7.565 3.482-2.566 1.064-5.217 1.902-7.859 2.757-2.66 0.794-5.381 1.381-8.088 1.978-2.723 0.537-5.487 0.87-8.229 1.241-11.052 1.151-22.096 0.836-32.927 0.205l-8.107-0.719c-2.688-0.368-5.369-0.71-8.037-1.112-2.658-0.501-5.31-0.986-7.942-1.543-2.619-0.645-5.239-1.234-7.829-1.933-2.571-0.793-5.148-1.517-7.683-2.371-2.518-0.919-5.053-1.746-7.526-2.745-2.456-1.053-4.931-2.017-7.338-3.143-2.391-1.169-4.807-2.244-7.143-3.489-18.725-9.858-35.153-23.351-47.681-39.451l2.263-2.262zM793.441 249.441c-12.528 16.101-28.956 29.593-47.681 39.451-2.336 1.244-4.753 2.32-7.143 3.489-2.407 1.125-4.882 2.09-7.338 3.143-2.473 0.999-5.008 1.825-7.526 2.745-2.535 0.854-5.112 1.578-7.683 2.371-2.59 0.698-5.21 1.288-7.829 1.933-2.632 0.557-5.284 1.042-7.942 1.543-2.668 0.402-5.35 0.744-8.037 1.112l-8.107 0.719c-10.831 0.631-21.875 0.946-32.927-0.205-2.741-0.371-5.506-0.704-8.229-1.241-2.707-0.597-5.428-1.184-8.088-1.978-2.642-0.854-5.293-1.693-7.859-2.757-2.55-1.107-5.108-2.185-7.565-3.482-9.861-5.104-18.927-11.68-26.612-19.537-0.954-0.991-1.872-2.022-2.795-3.034-0.908-1.031-1.866-1.982-2.693-3.097-1.702-2.163-3.37-4.323-4.909-6.577-1.478-2.328-2.93-4.631-4.227-7.04a79.07 79.07 0 0 1-3.383-7.557l2.263-2.263a102.28 102.28 0 0 1 7.501 2.792 225.28 225.28 0 0 1 7.141 2.773c1.15 0.478 2.343 0.888 3.501 1.328 1.165 0.43 2.286 0.903 3.42 1.346 2.279 0.869 4.57 1.666 6.78 2.529 8.951 3.289 17.622 6.213 26.259 8.774 2.146 0.67 4.329 1.218 6.445 1.924 2.133 0.662 4.293 1.227 6.4 1.952 2.122 0.682 4.271 1.278 6.385 2.024 1.059 0.368 2.139 0.661 3.21 0.999l3.215 1.047c8.589 2.752 17.57 5.039 26.765 5.68l6.907 0.343 6.94 0.004c2.31-0.117 4.638-0.159 6.963-0.295 2.312-0.217 4.645-0.372 6.967-0.632 2.311-0.311 4.651-0.55 6.97-0.916 2.304-0.424 4.638-0.78 6.948-1.257 2.293-0.527 4.63-0.966 6.921-1.566 2.275-0.644 4.599-1.194 6.866-1.917 18.295-5.446 35.736-14.722 51.542-26.932l2.264 2.262z" fill="#555F82" /><path d="M672 594.087C672 545.391 752 448 752 448s80 97.391 80 146.087C832 642.783 796.183 672 752 672s-80-29.217-80-77.913z" fill="#0096FF" /></svg>