<?xml version="1.0" standalone="no"?><!DOCTYPE svg PUBLIC "-//W3C//DTD SVG 1.1//EN" "http://www.w3.org/Graphics/SVG/1.1/DTD/svg11.dtd"><svg class="icon" width="48px" height="48.00px" viewBox="0 0 1024 1024" version="1.1" xmlns="http://www.w3.org/2000/svg"><path d="M512 960c-60.473 0-119.145-11.848-174.387-35.213-53.35-22.564-101.259-54.865-142.397-96.003-41.138-41.139-73.438-89.048-96.003-142.397C75.848 631.145 64 572.473 64 512s11.848-119.145 35.213-174.387c22.564-53.35 54.865-101.259 96.003-142.397 41.139-41.139 89.048-73.439 142.397-96.003C392.855 75.847 451.527 64 512 64s119.145 11.847 174.387 35.213c53.35 22.564 101.259 54.865 142.397 96.003 41.138 41.138 73.438 89.047 96.003 142.397C948.152 392.855 960 451.527 960 512s-11.848 119.145-35.213 174.387c-22.564 53.35-54.865 101.259-96.003 142.397-41.139 41.138-89.048 73.438-142.397 96.003C631.145 948.152 572.473 960 512 960z m0-864C282.617 96 96 282.617 96 512s186.617 416 416 416 416-186.617 416-416S741.383 96 512 96z" fill="#555F82" /><path d="M280 456m-56 0a56 56 0 1 0 112 0 56 56 0 1 0-112 0Z" fill="#545D80" /><path d="M744 456m-56 0a56 56 0 1 0 112 0 56 56 0 1 0-112 0Z" fill="#545D80" /><path d="M208 318.4c10.667-2.498 21.333-4.508 32-6.4l8-1.367 8-1.273 8-1.127 8-1.033c2.667-0.339 5.333-0.811 8-1.367 2.667-0.554 5.333-1.178 8-1.673 2.667-0.487 5.333-0.814 8-0.839 2.667-0.034 5.333 0.217 8 0.679 5.333 0.944 10.667 2.437 16 4.684 2.667 1.154 5.333 2.433 8 4.002 1.333 0.797 2.667 1.624 4 2.568a40.995 40.995 0 0 1 4 3.146v3.2a40.995 40.995 0 0 1-4 3.146c-1.333 0.943-2.667 1.77-4 2.568-2.667 1.569-5.333 2.848-8 4.002-5.333 2.247-10.667 3.741-16 4.684-2.667 0.462-5.333 0.712-8 0.679-2.667-0.024-5.333-0.352-8-0.839-2.667-0.495-5.333-1.119-8-1.673a102.686 102.686 0 0 0-8-1.367l-8-1.033-8-1.127-8-1.273-8-1.367c-10.667-1.892-21.333-3.902-32-6.4v-3.2zM816 321.6c-10.667 2.498-21.333 4.508-32 6.4l-8 1.367-8 1.273-8 1.127-8 1.033c-2.667 0.339-5.333 0.811-8 1.367-2.667 0.554-5.333 1.178-8 1.673-2.667 0.487-5.333 0.814-8 0.839-2.667 0.034-5.333-0.217-8-0.679-5.333-0.944-10.667-2.437-16-4.684-2.667-1.154-5.333-2.433-8-4.002-1.333-0.797-2.667-1.624-4-2.568a40.995 40.995 0 0 1-4-3.146v-3.2a40.995 40.995 0 0 1 4-3.146c1.333-0.943 2.667-1.77 4-2.568 2.667-1.569 5.333-2.848 8-4.002 5.333-2.247 10.667-3.741 16-4.684 2.667-0.462 5.333-0.712 8-0.679 2.667 0.024 5.333 0.352 8 0.839 2.667 0.495 5.333 1.119 8 1.673 2.667 0.556 5.333 1.028 8 1.367l8 1.033 8 1.127 8 1.273 8 1.367c10.667 1.892 21.333 3.902 32 6.4v3.2z" fill="#555F82" /><path d="M623.985 688.002c-3.04 0-6.112-0.865-8.834-2.672C614.53 684.923 569.934 656 512 656c-58.051 0-102.71 29.039-103.154 29.333-7.364 4.859-17.286 2.854-22.163-4.498s-2.898-17.254 4.442-22.147C393.249 657.271 443.938 624 512 624s118.751 33.271 120.875 34.688c7.353 4.901 9.34 14.835 4.438 22.188-3.084 4.624-8.158 7.126-13.328 7.126z" fill="#555F82" /></svg>