<?xml version="1.0" standalone="no"?><!DOCTYPE svg PUBLIC "-//W3C//DTD SVG 1.1//EN" "http://www.w3.org/Graphics/SVG/1.1/DTD/svg11.dtd"><svg class="icon" width="48px" height="48.00px" viewBox="0 0 1024 1024" version="1.1" xmlns="http://www.w3.org/2000/svg"><path d="M512 960c-60.473 0-119.145-11.848-174.387-35.213-53.35-22.564-101.259-54.865-142.397-96.003-41.138-41.139-73.438-89.048-96.003-142.397C75.848 631.145 64 572.473 64 512s11.848-119.145 35.213-174.387c22.564-53.35 54.865-101.259 96.003-142.397 41.139-41.138 89.048-73.438 142.397-96.003C392.855 75.848 451.527 64 512 64s119.145 11.848 174.387 35.213c53.35 22.564 101.259 54.865 142.397 96.003 41.138 41.139 73.438 89.048 96.003 142.397C948.152 392.855 960 451.527 960 512s-11.848 119.145-35.213 174.387c-22.564 53.35-54.865 101.259-96.003 142.397-41.139 41.138-89.048 73.438-142.397 96.003C631.145 948.152 572.473 960 512 960z m0-864C282.617 96 96 282.617 96 512s186.617 416 416 416 416-186.617 416-416S741.383 96 512 96z" fill="#555F82" /><path d="M512 808c-8.837 0-16-7.163-16-16s7.163-16 16-16c18.748 0 34-15.252 34-34s-15.252-34-34-34c-8.837 0-16-7.163-16-16s7.163-16 16-16c18.748 0 34-15.252 34-34s-15.252-34-34-34c-8.837 0-16-7.163-16-16s7.163-16 16-16c36.393 0 66 29.607 66 66 0 19.965-8.911 37.888-22.964 50C569.089 704.112 578 722.035 578 742c0 36.393-29.607 66-66 66zM876.677 464c-2.899-1.495-5.649-3.083-8.378-4.644-2.776-1.509-5.572-2.941-8.26-4.452l-8.249-4.169c-2.748-1.342-5.527-2.596-8.254-3.88-11.014-4.979-22.105-9.136-33.284-12.485-22.358-6.669-45.114-10.07-67.913-10.061-22.798 0.029-45.546 3.427-67.896 10.104-11.175 3.352-22.265 7.501-33.279 12.476-2.727 1.282-5.511 2.529-8.257 3.874l-8.253 4.162c-2.69 1.508-5.488 2.938-8.266 4.444-2.733 1.557-5.484 3.143-8.388 4.634 1.603-2.794 3.358-5.493 5.131-8.22 1.876-2.615 3.841-5.186 5.854-7.745 2.037-2.531 4.268-4.873 6.441-7.328a23.566 23.566 0 0 1 1.697-1.761l1.753-1.703 3.531-3.42c9.649-8.869 20.589-16.52 32.392-22.688 23.6-12.395 50.585-18.848 77.538-18.823 26.952 0.012 53.929 6.463 77.521 18.865 11.799 6.17 22.739 13.815 32.387 22.679l3.533 3.415c1.155 1.158 2.379 2.212 3.45 3.462 2.177 2.45 4.406 4.793 6.446 7.32a220.804 220.804 0 0 1 5.86 7.737c1.779 2.721 3.536 5.418 5.143 8.207zM147.323 464c1.607-2.789 3.364-5.486 5.141-8.209a220.804 220.804 0 0 1 5.86-7.737c2.04-2.527 4.269-4.87 6.446-7.32 1.071-1.25 2.295-2.304 3.45-3.462l3.533-3.415c9.649-8.865 20.588-16.509 32.387-22.679 23.592-12.402 50.569-18.853 77.521-18.865 26.953-0.025 53.938 6.428 77.538 18.823 11.803 6.169 22.743 13.82 32.392 22.688l3.531 3.42 1.753 1.703a23.566 23.566 0 0 1 1.697 1.761c2.174 2.455 4.404 4.797 6.441 7.328 2.013 2.559 3.978 5.13 5.854 7.745 1.774 2.727 3.529 5.427 5.131 8.22-2.904-1.491-5.655-3.076-8.388-4.634-2.778-1.506-5.576-2.936-8.266-4.444l-8.253-4.162c-2.746-1.344-5.529-2.592-8.257-3.874-11.014-4.976-22.104-9.125-33.279-12.476-22.349-6.677-45.098-10.075-67.896-10.104-22.8-0.009-45.556 3.392-67.913 10.061-11.179 3.35-22.27 7.506-33.284 12.485-2.727 1.283-5.506 2.538-8.254 3.88l-8.248 4.169c-2.688 1.511-5.484 2.944-8.26 4.452-2.728 1.563-5.478 3.151-8.377 4.646z" fill="#555F82" /><path d="M369 254.75c8.227 3.383 16.15 7.146 23.998 11.002l5.854 2.932 5.795 3.006 5.704 3.12 5.645 3.194c1.878 1.069 3.84 2.033 5.854 2.933 2.013 0.901 4.069 1.747 6.045 2.694 1.971 0.953 3.842 2.031 5.524 3.345 1.688 1.307 3.198 2.836 4.576 4.53a50.86 50.86 0 0 1 7.074 11.658c0.946 2.234 1.813 4.566 2.5 7.125 0.335 1.289 0.652 2.602 0.896 4.005 0.261 1.382 0.441 2.865 0.535 4.457l-2 2.499c-1.573 0.258-3.06 0.408-4.465 0.457-1.423 0.07-2.772 0.049-4.104 0.005-2.647-0.108-5.113-0.443-7.5-0.875a50.826 50.826 0 0 1-12.926-4.342c-1.955-0.973-3.778-2.111-5.424-3.47-1.651-1.353-3.114-2.941-4.476-4.655-1.358-1.719-2.634-3.541-3.955-5.306a67.146 67.146 0 0 0-4.146-5.067l-4.355-4.806-4.296-4.88-4.205-4.994-4.146-5.068c-5.485-6.811-10.896-13.714-16.002-20.998l2-2.501zM657 257.25c-5.106 7.284-10.517 14.187-16.002 20.998l-4.146 5.068-4.205 4.994-4.296 4.88-4.355 4.806c-1.455 1.598-2.827 3.3-4.146 5.067-1.321 1.766-2.597 3.587-3.955 5.306-1.363 1.714-2.825 3.302-4.476 4.655-1.646 1.359-3.469 2.497-5.424 3.47a50.826 50.826 0 0 1-12.926 4.342c-2.387 0.432-4.853 0.767-7.5 0.875-1.331 0.044-2.681 0.065-4.104-0.005a34.993 34.993 0 0 1-4.465-0.457l-2-2.499c0.094-1.591 0.273-3.075 0.535-4.457 0.244-1.404 0.561-2.716 0.896-4.005 0.687-2.559 1.554-4.891 2.5-7.125a50.86 50.86 0 0 1 7.074-11.658c1.378-1.694 2.888-3.223 4.576-4.53 1.682-1.314 3.553-2.392 5.524-3.345 1.976-0.947 4.033-1.793 6.045-2.694 2.014-0.899 3.976-1.864 5.854-2.933l5.645-3.194 5.704-3.12 5.795-3.006 5.854-2.932c7.848-3.856 15.771-7.62 23.998-11.002l2 2.501z" fill="#555F82" /><path d="M815.415 607.415c-25.936-25.936-67.308-27.022-94.542-3.265-27.234-23.757-68.605-22.672-94.542 3.265-25.896 25.896-27.019 67.181-3.376 94.416l-0.126 0.126 3.502 3.502L720.873 800l94.542-94.542 3.502-3.502-0.126-0.126c23.643-27.234 22.52-68.519-3.376-94.415z" fill="#FF4646" /></svg>