<?xml version="1.0" standalone="no"?><!DOCTYPE svg PUBLIC "-//W3C//DTD SVG 1.1//EN" "http://www.w3.org/Graphics/SVG/1.1/DTD/svg11.dtd"><svg class="icon" width="48px" height="48.00px" viewBox="0 0 1024 1024" version="1.1" xmlns="http://www.w3.org/2000/svg"><path d="M512 960c-60.473 0-119.145-11.848-174.387-35.213-53.35-22.564-101.259-54.865-142.397-96.003-41.139-41.139-73.439-89.048-96.003-142.397C75.847 631.145 64 572.473 64 512s11.847-119.145 35.213-174.387c22.564-53.35 54.865-101.259 96.003-142.397 41.138-41.138 89.047-73.438 142.397-96.003C392.855 75.848 451.527 64 512 64s119.145 11.848 174.387 35.213c53.35 22.564 101.259 54.865 142.397 96.003 41.139 41.139 73.439 89.048 96.003 142.397C948.153 392.855 960 451.527 960 512s-11.847 119.145-35.213 174.387c-22.564 53.35-54.865 101.259-96.003 142.397-41.138 41.138-89.047 73.438-142.397 96.003C631.145 948.152 572.473 960 512 960z m0-864C282.617 96 96 282.617 96 512s186.617 416 416 416 416-186.617 416-416S741.383 96 512 96z" fill="#555F82" /><path d="M368.823 254.628c7.952 1.858 15.653 4.134 23.293 6.512l5.703 1.828 5.655 1.909 5.58 2.033 5.531 2.115c1.841 0.71 3.75 1.305 5.703 1.828 1.952 0.525 3.94 0.989 5.861 1.565 1.917 0.582 3.752 1.302 5.432 2.281 1.684 0.971 3.222 2.186 4.651 3.582a43.329 43.329 0 0 1 7.586 10.024c2.155 3.965 4.034 8.389 5.006 14.324l-1.646 2.744c-5.695 1.936-10.482 2.36-14.994 2.324a43.345 43.345 0 0 1-12.414-1.976c-1.904-0.604-3.7-1.389-5.349-2.418-1.654-1.021-3.152-2.302-4.568-3.719-1.412-1.424-2.757-2.96-4.139-4.435-1.381-1.477-2.804-2.882-4.297-4.172l-4.469-3.885-4.42-3.967-4.345-4.091-4.297-4.172c-5.693-5.622-11.326-11.346-16.707-17.488l1.644-2.746zM656.823 257.372c-5.381 6.142-11.014 11.866-16.707 17.488l-4.296 4.172-4.345 4.091-4.42 3.967-4.469 3.885c-1.492 1.29-2.916 2.695-4.297 4.172-1.382 1.475-2.727 3.011-4.139 4.435-1.416 1.418-2.914 2.698-4.568 3.719-1.649 1.029-3.445 1.814-5.349 2.418a43.316 43.316 0 0 1-12.414 1.976c-4.512 0.035-9.3-0.389-14.995-2.324l-1.646-2.744c0.972-5.936 2.851-10.36 5.005-14.324a43.35 43.35 0 0 1 7.586-10.024c1.429-1.396 2.967-2.611 4.651-3.582 1.679-0.979 3.514-1.698 5.432-2.281 1.921-0.576 3.909-1.04 5.861-1.565 1.953-0.523 3.862-1.118 5.703-1.828l5.531-2.115 5.58-2.033 5.655-1.909 5.704-1.828c7.64-2.378 15.341-4.654 23.293-6.512l1.644 2.746z" fill="#555F82" /><path d="M366.24 368.284c11.45 10.62 20.936 23.547 27.603 37.938 6.641 14.397 10.454 30.198 11.144 46.239 0.726 16.044-1.796 32.317-7.332 47.604-5.527 15.293-14.154 29.564-25.208 41.715-11.085 12.355-25.486 22.106-41.373 27.882-15.894 5.807-33.292 7.716-50.26 5.404-16.959-2.326-33.443-8.922-47.459-19.077-1.739-1.285-3.492-2.557-5.137-3.963-0.832-0.691-1.678-1.369-2.497-2.075l-2.4-2.184c-1.61-1.409-3.163-3.061-4.726-4.635-1.484-1.663-3.009-3.295-4.38-5.063-1.438-1.714-2.716-3.553-4.032-5.367-1.227-1.874-2.485-3.734-3.581-5.694-2.258-3.878-4.248-7.929-5.864-12.13-3.334-8.367-5.326-17.272-6.022-26.294-0.297-4.514-0.349-9.056-0.04-13.593 0.32-4.535 1.014-9.05 2-13.51 2.018-8.906 5.339-17.597 9.993-25.575 1.125-2.019 2.413-3.936 3.686-5.868 1.352-1.871 2.674-3.778 4.16-5.549 1.425-1.828 2.988-3.529 4.539-5.25 1.645-1.726 3.378-3.438 5.195-5.035 7.308-6.365 15.892-11.41 25.146-14.592a75.152 75.152 0 0 1 28.915-3.915 74.965 74.965 0 0 1 28.265 7.408c4.399 2.16 8.612 4.706 12.491 7.677l2.851 2.293c0.932 0.784 1.826 1.611 2.733 2.42 1.772 1.665 3.473 3.335 5.152 5.33l2.47 2.915 2.203 3.134c1.521 2.05 2.702 4.323 3.936 6.548 0.646 1.097 1.132 2.277 1.643 3.441l1.496 3.503c0.41 1.2 0.797 2.409 1.182 3.615 0.377 1.209 0.795 2.404 1.019 3.651 0.525 2.473 1.095 4.93 1.296 7.443 0.128 1.251 0.295 2.496 0.366 3.747l0.064 3.759 0.013 1.874c-0.027 0.624-0.085 1.248-0.129 1.87l-0.313 3.729c-0.122 1.239-0.389 2.463-0.603 3.688l-0.349 1.832a15.135 15.135 0 0 1-0.421 1.814c-2.457 9.624-7.148 18.629-13.636 25.904-0.82 0.897-1.694 1.743-2.544 2.606l-1.286 1.28c-0.424 0.426-0.849 0.85-1.359 1.252l-2.936 2.412c-0.976 0.799-2.078 1.45-3.124 2.156l-1.589 1.026c-0.545 0.317-1.112 0.6-1.668 0.897-1.125 0.572-2.219 1.193-3.371 1.691l-3.491 1.398c-1.157 0.47-2.384 0.75-3.571 1.116-4.79 1.326-9.742 1.965-14.625 1.741-0.61-0.023-1.218 0-1.825-0.067l-1.817-0.193c-1.207-0.153-2.415-0.222-3.598-0.506-1.188-0.24-2.369-0.493-3.539-0.762l-3.441-1.092c-1.15-0.33-2.236-0.862-3.337-1.319-1.097-0.472-2.193-0.929-3.221-1.538-1.04-0.579-2.086-1.135-3.094-1.746a155.56 155.56 0 0 1-2.904-2.024c-0.983-0.642-1.826-1.476-2.723-2.221-0.881-0.767-1.776-1.507-2.548-2.379l-2.369-2.526a98.714 98.714 0 0 1-2.187-2.834c-2.721-3.913-4.698-8.276-5.748-12.778-1.047-4.502-1.246-9.114-0.562-13.52a34.005 34.005 0 0 1 4.352-12.286c2.221-3.667 5.044-6.866 8.337-9.3l2.263 2.263c-4.336 6.04-6.115 13.188-5.469 19.751 0.634 6.588 3.666 12.485 8.054 16.494 0.586 0.475 1.136 0.962 1.695 1.443l1.917 1.347c0.604 0.483 1.305 0.828 1.972 1.206 0.682 0.355 1.294 0.805 2.02 1.066 0.7 0.301 1.394 0.597 2.069 0.914 0.707 0.259 1.43 0.47 2.13 0.715 0.688 0.274 1.428 0.408 2.15 0.569 0.726 0.146 1.42 0.378 2.164 0.422 5.799 0.869 11.675 0.056 16.652-2.269 0.612-0.315 1.263-0.522 1.84-0.895a66.608 66.608 0 0 1 1.749-1.034c0.573-0.354 1.088-0.805 1.636-1.184 0.268-0.201 0.547-0.381 0.807-0.59l0.738-0.685 0.742-0.666c0.249-0.218 0.512-0.416 0.723-0.682 0.446-0.498 0.895-0.985 1.35-1.461 0.232-0.216 0.447-0.512 0.662-0.806l0.651-0.863c0.428-0.577 0.888-1.124 1.3-1.704 3.137-4.759 5.173-10.046 5.927-15.484 0.753-5.436 0.15-10.965-1.53-15.992-0.154-0.646-0.459-1.243-0.703-1.856l-0.734-1.834-0.935-1.736c-0.305-0.579-0.568-1.179-0.973-1.701-0.75-1.074-1.374-2.217-2.275-3.178l-1.219-1.52-1.401-1.372c-0.831-0.93-1.942-1.901-3.026-2.816-0.562-0.435-1.102-0.896-1.668-1.32l-1.722-1.235c-2.331-1.589-4.778-2.981-7.342-4.11a47.39 47.39 0 0 0-16.226-4.002 47.57 47.57 0 0 0-16.648 1.876c-5.391 1.588-10.515 4.151-15.026 7.662-1.148 0.863-2.225 1.786-3.32 2.766-1.099 1.074-2.239 2.118-3.262 3.267-1.087 1.098-2.032 2.311-3.039 3.481-0.926 1.229-1.894 2.436-2.742 3.727-1.75 2.545-3.339 5.22-4.663 8.036-1.328 2.81-2.542 5.706-3.403 8.723-0.885 3.008-1.594 6.086-2.037 9.217-0.415 3.132-0.654 6.304-0.599 9.484 0.153 6.353 1.201 12.724 3.253 18.793 0.998 3.045 2.283 5.994 3.764 8.845 0.708 1.445 1.561 2.81 2.366 4.207 0.895 1.338 1.735 2.72 2.724 4.001 0.92 1.332 1.985 2.554 2.994 3.826 1.107 1.2 2.117 2.429 3.36 3.612l1.787 1.796c0.613 0.58 1.249 1.133 1.871 1.704 1.226 1.166 2.551 2.21 3.858 3.282 10.549 8.433 23.253 14.275 36.721 16.778 13.441 2.635 27.642 1.944 40.949-2.066 6.675-1.95 13.068-4.858 19.099-8.404 6.052-3.556 11.592-7.888 16.68-12.904 10.345-10.004 18.781-22.078 24.599-35.433 5.846-13.344 9.025-27.932 9.438-42.692 0.894-29.547-10.228-59.683-30.982-82.01l2.259-2.261zM782.24 368.284c11.45 10.62 20.936 23.547 27.603 37.938 6.641 14.397 10.454 30.198 11.144 46.239 0.726 16.044-1.796 32.317-7.332 47.604-5.527 15.293-14.154 29.564-25.208 41.715-11.085 12.355-25.486 22.106-41.373 27.882-15.894 5.807-33.292 7.716-50.26 5.404-16.959-2.326-33.443-8.922-47.459-19.077-1.739-1.285-3.492-2.557-5.137-3.963-0.832-0.691-1.678-1.369-2.497-2.075l-2.4-2.184c-1.61-1.409-3.163-3.061-4.726-4.635-1.484-1.663-3.009-3.295-4.38-5.063-1.438-1.714-2.716-3.553-4.032-5.367-1.227-1.874-2.485-3.734-3.581-5.694-2.258-3.878-4.248-7.929-5.864-12.13-3.334-8.367-5.326-17.272-6.022-26.294-0.297-4.514-0.349-9.056-0.04-13.593 0.32-4.535 1.014-9.05 2-13.51 2.018-8.906 5.339-17.597 9.993-25.575 1.125-2.019 2.413-3.936 3.686-5.868 1.352-1.871 2.674-3.778 4.16-5.549 1.425-1.828 2.988-3.529 4.539-5.25 1.645-1.726 3.378-3.438 5.195-5.035 7.308-6.365 15.892-11.41 25.146-14.592a75.152 75.152 0 0 1 28.915-3.915 74.965 74.965 0 0 1 28.265 7.408c4.399 2.16 8.612 4.706 12.491 7.677l2.851 2.293c0.932 0.784 1.826 1.611 2.733 2.42 1.772 1.665 3.473 3.335 5.152 5.33l2.47 2.915 2.203 3.134c1.521 2.05 2.702 4.323 3.936 6.548 0.646 1.097 1.132 2.277 1.643 3.441l1.496 3.503c0.41 1.2 0.797 2.409 1.182 3.615 0.377 1.209 0.795 2.404 1.019 3.651 0.525 2.473 1.095 4.93 1.296 7.443 0.128 1.251 0.295 2.496 0.366 3.747l0.064 3.759 0.013 1.874c-0.027 0.624-0.085 1.248-0.129 1.87l-0.313 3.729c-0.122 1.239-0.388 2.463-0.603 3.688l-0.349 1.832a15.135 15.135 0 0 1-0.421 1.814c-2.457 9.624-7.148 18.629-13.636 25.904-0.82 0.897-1.694 1.743-2.544 2.606l-1.286 1.28c-0.424 0.426-0.85 0.85-1.359 1.252l-2.936 2.412c-0.976 0.799-2.078 1.45-3.124 2.156l-1.589 1.026c-0.545 0.317-1.112 0.6-1.668 0.897-1.125 0.572-2.219 1.193-3.371 1.691l-3.491 1.398c-1.157 0.47-2.384 0.75-3.571 1.116-4.79 1.326-9.742 1.965-14.625 1.741-0.61-0.023-1.218 0-1.825-0.067l-1.817-0.193c-1.207-0.153-2.415-0.222-3.598-0.506-1.188-0.24-2.368-0.493-3.539-0.762l-3.441-1.092c-1.15-0.33-2.236-0.862-3.337-1.319-1.097-0.472-2.192-0.929-3.221-1.538-1.04-0.579-2.086-1.135-3.094-1.746a155.56 155.56 0 0 1-2.904-2.024c-0.982-0.642-1.826-1.476-2.723-2.221-0.881-0.767-1.776-1.507-2.548-2.379l-2.369-2.526a98.714 98.714 0 0 1-2.187-2.834c-2.721-3.913-4.698-8.276-5.748-12.778-1.047-4.502-1.246-9.114-0.562-13.52a33.987 33.987 0 0 1 4.352-12.286c2.221-3.667 5.044-6.866 8.337-9.3l2.263 2.263c-4.336 6.04-6.115 13.188-5.469 19.751 0.634 6.588 3.666 12.485 8.054 16.494 0.586 0.475 1.136 0.962 1.695 1.443l1.917 1.347c0.604 0.483 1.305 0.828 1.972 1.206 0.682 0.355 1.294 0.805 2.02 1.066 0.7 0.301 1.394 0.597 2.069 0.914 0.707 0.259 1.43 0.47 2.13 0.715 0.688 0.274 1.428 0.408 2.15 0.569 0.726 0.146 1.42 0.378 2.164 0.422 5.799 0.869 11.675 0.056 16.652-2.269 0.612-0.315 1.263-0.522 1.84-0.895a66.608 66.608 0 0 1 1.749-1.034c0.573-0.354 1.088-0.805 1.636-1.184 0.268-0.201 0.547-0.381 0.807-0.59l0.738-0.685 0.742-0.666c0.249-0.218 0.512-0.416 0.723-0.682 0.446-0.498 0.895-0.985 1.35-1.461 0.232-0.216 0.447-0.512 0.662-0.806l0.65-0.863c0.428-0.577 0.888-1.124 1.3-1.704 3.137-4.759 5.173-10.046 5.927-15.484 0.753-5.436 0.15-10.965-1.53-15.992-0.154-0.646-0.459-1.243-0.703-1.856l-0.733-1.834-0.935-1.736c-0.305-0.579-0.568-1.179-0.973-1.701-0.75-1.074-1.374-2.217-2.275-3.178l-1.219-1.52-1.401-1.372c-0.831-0.93-1.942-1.901-3.026-2.816-0.562-0.435-1.102-0.896-1.668-1.32l-1.722-1.235c-2.331-1.589-4.778-2.981-7.342-4.11a47.39 47.39 0 0 0-16.226-4.002 47.57 47.57 0 0 0-16.648 1.876c-5.391 1.588-10.515 4.151-15.026 7.662-1.148 0.863-2.225 1.786-3.32 2.766-1.099 1.074-2.239 2.118-3.262 3.267-1.087 1.098-2.032 2.311-3.039 3.481-0.926 1.229-1.894 2.436-2.742 3.727-1.75 2.545-3.34 5.22-4.663 8.036-1.328 2.81-2.542 5.706-3.403 8.723-0.885 3.008-1.594 6.086-2.037 9.217-0.415 3.132-0.654 6.304-0.599 9.484 0.153 6.353 1.201 12.724 3.253 18.793 0.998 3.045 2.283 5.994 3.764 8.845 0.708 1.445 1.561 2.81 2.366 4.207 0.895 1.338 1.735 2.72 2.724 4.001 0.92 1.332 1.985 2.554 2.994 3.826 1.107 1.2 2.117 2.429 3.36 3.612l1.787 1.796c0.613 0.58 1.249 1.133 1.871 1.704 1.226 1.166 2.551 2.21 3.858 3.282 10.549 8.433 23.253 14.275 36.721 16.778 13.441 2.635 27.642 1.944 40.949-2.066 6.675-1.95 13.068-4.858 19.099-8.404 6.052-3.556 11.592-7.888 16.68-12.904 10.345-10.004 18.781-22.078 24.599-35.433 5.846-13.344 9.025-27.932 9.438-42.692 0.894-29.547-10.228-59.683-30.982-82.01l2.259-2.261zM512.931 776.007c31.614-27.578 78.319-28.596 111.068-3.091l0.001-84.917C623.626 626.144 573.482 576 511.627 576s-111.999 50.144-111.625 111.999L400 774.377c32.819-27.018 80.716-26.472 112.931 1.63z" fill="#555F82" /><path d="M512.931 776.007c-32.215-28.102-80.111-28.648-112.93-1.63v9.624C400.374 845.856 450.518 896 512.373 896s111.999-50.144 111.625-111.999v-11.084c-32.748-25.506-79.453-24.488-111.067 3.09z" fill="#FF4646" /></svg>