<?xml version="1.0" standalone="no"?><!DOCTYPE svg PUBLIC "-//W3C//DTD SVG 1.1//EN" "http://www.w3.org/Graphics/SVG/1.1/DTD/svg11.dtd"><svg class="icon" width="48px" height="48.00px" viewBox="0 0 1024 1024" version="1.1" xmlns="http://www.w3.org/2000/svg"><path d="M512 960c-60.473 0-119.145-11.848-174.387-35.213-53.35-22.564-101.259-54.865-142.397-96.003-41.139-41.139-73.439-89.048-96.003-142.397C75.847 631.145 64 572.473 64 512s11.847-119.145 35.213-174.387c22.564-53.35 54.865-101.259 96.003-142.397 41.138-41.139 89.047-73.439 142.397-96.003C392.855 75.847 451.527 64 512 64s119.145 11.847 174.387 35.213c53.35 22.564 101.259 54.865 142.397 96.003 41.139 41.138 73.439 89.047 96.003 142.397C948.153 392.855 960 451.527 960 512s-11.847 119.145-35.213 174.387c-22.564 53.35-54.865 101.259-96.003 142.397-41.138 41.138-89.047 73.438-142.397 96.003C631.145 948.152 572.473 960 512 960z m0-864C282.617 96 96 282.617 96 512s186.617 416 416 416 416-186.617 416-416S741.383 96 512 96z" fill="#555F82" /><path d="M280 392m-56 0a56 56 0 1 0 112 0 56 56 0 1 0-112 0Z" fill="#545D80" /><path d="M760 392m-56 0a56 56 0 1 0 112 0 56 56 0 1 0-112 0Z" fill="#545D80" /><path d="M368.823 254.628c7.952 1.858 15.653 4.134 23.293 6.512l5.703 1.827 5.655 1.909 5.58 2.033 5.531 2.115c1.841 0.71 3.75 1.305 5.703 1.828 1.952 0.525 3.94 0.989 5.861 1.565 1.917 0.582 3.752 1.302 5.432 2.281 1.684 0.971 3.222 2.186 4.651 3.582a43.329 43.329 0 0 1 7.586 10.024c2.155 3.965 4.034 8.388 5.006 14.324l-1.646 2.744c-5.695 1.936-10.482 2.36-14.994 2.324a43.31 43.31 0 0 1-12.414-1.976c-1.904-0.604-3.7-1.389-5.349-2.418-1.654-1.021-3.152-2.302-4.568-3.719-1.412-1.424-2.757-2.96-4.139-4.435-1.381-1.477-2.804-2.882-4.297-4.172l-4.469-3.885-4.42-3.967-4.345-4.091-4.297-4.173c-5.693-5.622-11.326-11.346-16.707-17.488l1.644-2.744zM656.823 257.372c-5.381 6.142-11.014 11.866-16.707 17.488l-4.296 4.173-4.345 4.091-4.42 3.967-4.469 3.885c-1.492 1.29-2.916 2.695-4.297 4.172-1.382 1.475-2.727 3.011-4.139 4.435-1.416 1.418-2.914 2.698-4.568 3.719-1.649 1.029-3.445 1.814-5.349 2.418a43.316 43.316 0 0 1-12.414 1.976c-4.512 0.035-9.3-0.388-14.995-2.324l-1.646-2.744c0.972-5.936 2.851-10.36 5.005-14.324a43.329 43.329 0 0 1 7.586-10.024c1.429-1.396 2.967-2.611 4.651-3.582 1.679-0.979 3.514-1.698 5.432-2.281 1.921-0.576 3.909-1.04 5.861-1.565 1.953-0.523 3.862-1.118 5.703-1.828l5.531-2.115 5.58-2.033 5.655-1.909 5.704-1.827c7.64-2.378 15.341-4.654 23.293-6.512l1.644 2.744z" fill="#555F82" /><path d="M624 688H400c-8.836 0-16-7.163-16-16s7.164-16 16-16h224c8.836 0 16 7.163 16 16s-7.164 16-16 16z" fill="#555F82" /></svg>